<?xml version="1.0" encoding="UTF-8" standalone="no"?>
<svg
   xmlns:dc="http://purl.org/dc/elements/1.1/"
   xmlns:cc="http://creativecommons.org/ns#"
   xmlns:rdf="http://www.w3.org/1999/02/22-rdf-syntax-ns#"
   xmlns:svg="http://www.w3.org/2000/svg"
   xmlns="http://www.w3.org/2000/svg"
   xmlns:sodipodi="http://sodipodi.sourceforge.net/DTD/sodipodi-0.dtd"
   xmlns:inkscape="http://www.inkscape.org/namespaces/inkscape"
   width="7.150876in"
   height="6.4135013in"
   viewBox="0 0 514.86308 461.77209"
   version="1.1"
   id="svg842"
   sodipodi:docname="profile.svg"
   inkscape:version="0.92.2 5c3e80d, 2017-08-06">
  <metadata
     id="metadata848">
    <rdf:RDF>
      <cc:Work
         rdf:about="">
        <dc:format>image/svg+xml</dc:format>
        <dc:type
           rdf:resource="http://purl.org/dc/dcmitype/StillImage" />
        <dc:title></dc:title>
      </cc:Work>
    </rdf:RDF>
  </metadata>
  <defs
     id="defs846" />
  <sodipodi:namedview
     pagecolor="#ffffff"
     bordercolor="#666666"
     borderopacity="1"
     objecttolerance="10"
     gridtolerance="10"
     guidetolerance="10"
     inkscape:pageopacity="0"
     inkscape:pageshadow="2"
     inkscape:window-width="1450"
     inkscape:window-height="863"
     id="namedview844"
     showgrid="false"
     fit-margin-top="0"
     fit-margin-left="0"
     fit-margin-right="0"
     fit-margin-bottom="0"
     inkscape:zoom="0.082776389"
     inkscape:cx="3027.7598"
     inkscape:cy="-1629.0591"
     inkscape:window-x="0"
     inkscape:window-y="0"
     inkscape:window-maximized="0"
     inkscape:current-layer="svg842" />
  <path
     id="Selection #1"
     d="m 153.34674,420.41433 c 4.82,-16.92 16.46,-19.42 22.54,-26.1 0,0 6.92,-8.81 6.92,-8.81 3.69,-4.19 5.82,-4.68 8.91,-10.09 6.14,-10.77 5.56,-15.73 7.33,-20 0,0 5.82,-10 5.82,-10 1.99,-4.89 1.42,-9.84 1.48,-15 0,0 0.82,-9 0.82,-9 0.35,-4.92 -4.54,-23.84 -7.18,-27.87 -2.04,-3.11 -5.52,-4.62 -8.17,-7.15 -7.51,-7.14 -1.99,-5.32 -12.47,-7.35 -4.54,-0.88 -13.57,-2.86 -17.4,0.97 -2.29,2.27 -0.5,4.37 -4.85,10.4 -3.4,4.71 -14.32,18.72 -16.22,23 -2.35,5.29 -5.5,18.25 -5.53,24 0,0 -1,28 -1,28 0.01,3.36 -0.13,5.73 0.91,9 1.61,5.02 6.59,13.22 2.92,18.57 -0.95,1.38 -2.27,1.94 -3.87,2.19 -7.62,1.16 -12.97,-10.17 -19.26,-3.33 -2.25,2.44 -6.66,14.98 -7.26,18.57 -0.67,4.02 -0.3,7.28 -3.09,10.68 -2.66,3.23 -8.169998,6.56 -12.349998,7.13 -5,0.68 -9.24,-0.81 -14,1.84 -3.02,1.68 -5.69,4.26 -7.24,7.36 -1.57,3.15 -1.63,6.61 -4.98,8.68 -5.62,3.47 -15.32,-0.84 -19.78,0.55 -4.2,1.3 -6.08,4.69 -9.32,7 -4.91,3.49 -9.79,3.3 -12.59,4.3 -3.38,1.2 -4.38,3.47 -9.09,3.31 -4.46,-0.14 -12.7299999,-3.47 -14.39999988,-7.89 -1.77,-4.7 2.32999998,-13.05 3.35999998,-17.96 0,0 0,-7 0,-7 0,0 5.49,-25 5.49,-25 2.6199999,-5.15 8.0899999,-8.66 13.5499999,-10 0.04,-4.32 1.39,-15.12 2.81,-19 3.87,-10.56 8.17,-9.71 8.38,-25 -0.19,-2.88 -0.36,-8.42 0,-11 0,0 3.42,-9 3.42,-9 0,0 0.92,-11 0.92,-11 1.25,-5.53 5.64,-15.54 7.87,-21 0,0 7.87,-19 7.87,-19 4.5,-8.18 12.72,-7.24 15.13,-13.1 0.64,-1.55 0.99,-9.68 2.93,-14.9 1.91,-5.15 6.09,-10.17 7.29,-15 1.78,-7.17 -0.5,-14.07 6.42,-18.68 7.94,-5.28 17.449998,-8.27 26.959998,-8.32 3.86,-0.02 9.37,-0.24 13,0.71 5.78,1.5 10.2,6.4 16,6.61 4.88,0.18 7.94,-3.69 14,-5.32 -1.89,-7.88 -0.07,-8.05 2.46,-15 8.43,-23.17 7.8,-15.64 15.87,-32 0,0 3.43,-9 3.43,-9 2.36,-5.92 5.16,-11.68 8.35,-17.17 0,0 7.45,-16.12 7.45,-16.12 1.39,-1.53 2.65,-1.92 4.44,-2.71 -1.16,-5.23 -0.47,-6.9 0.83,-12 4.27,-16.770011 7.89,-15.770011 18.65,-28.280011 3.43,-3.99 3.71,-6.69 5.57,-9.29 0,0 7.83,-9.52 7.83,-9.52 2.84,-4.52 4.4,-12.05 9.51,-17.61 5,-5.45 11.67,-8.91 17.59,-13.14 0,0 6.45,-6.01 6.45,-6.01 0,0 22.57,-12.32 22.57,-12.32 9.91,-4.11 25.18,-5.9 36,-6.899997 0,0 19,-2.84000001 19,-2.84000001 0,0 21,2.44000001 21,2.44000001 0,0 8,2.689997 8,2.689997 0,0 20,4.88 20,4.88 9.99,3.46 34.94,19.87 46,26.04 0,0 15,7.35 15,7.35 0,0 18,10.75 18,10.75 5.4,3.21 7.9,3.17 12.99,7.86 2.38,2.21 12,11.61 13.3,13.92 5.07,8.97 2.1,12.42 4.14,19.98001 0,0 2.97,9.000001 2.97,9.000001 0,0 1.64,8 1.64,8 0,0 2.58,8 2.58,8 0,0 0.7,9 0.7,9 0,0 2.22,9 2.22,9 0,0 2.37,23 2.37,23 0.33,5.88 -1.2,8.01 -1.74,13 -1.08,10.11 1.94,10.08 -4.69,20 0,0 -9.58,13 -9.58,13 -2.86,3.17 -7.04,6.39 -7.24,11 -0.32,7.62 9.53,22.32 14.55,28.01 2.8,3.18 6.89,6.2 8.56,10.03 1.31,2.99 1.3,6.74 1.21,9.96 -0.15,5.69 -2.56,11.49 -7.35,14.89 -5.64,3.99 -13.32,4.41 -12.53,13.11 0,0 1.16,10 1.16,10 0,0 1.61,7 1.61,7 1.09,11.48 -11.39,14.99 -13.33,21 -1.59,4.91 4.59,5.65 2.63,12 -3.21,10.4 -10.99,14.56 -15.34,21.17 -2.12,3.2 -2.16,6.23 -3.51,9.41 0,0 -7.47,14.55 -7.47,14.55 -2,3.83 -4.14,8.06 -8.29,10.05 -2.62,1.25 -12.2,0.86 -15.56,0.82 -8.13,-0.1 -8.16,-1.58 -15,-3.4 0,0 -23,-5.19 -23,-5.19 -5.11,-0.85 -14.01,-3.05 -18.86,0 -5.5,2.96 -4.58,10.31 -5.46,15.59 0,0 -3.22,12 -3.22,12 -0.47,2.44 -0.53,6.44 -2.28,8.26 -1.76,1.83 -4.84,1.7 -7.18,1.74 0,0 -18,0 -18,0 0,0 -21,2.78 -21,2.78 -4.94,0.07 -5.88,-2.5 -11,-2.68 0,0 -20,1.86 -20,1.86 0,0 -20,1.04 -20,1.04 0,0 -29,0 -29,0 0,0 -51,-7 -51,-7 0,0 -14,0 -14,0 -15.13,-0.07 -13.62,-4.3 -24,-6 z"
     style="fill:#000000;fill-opacity:1;stroke:#000000;stroke-width:1"
     inkscape:connector-curvature="0" />
</svg>
