<svg version="1.0" xmlns="http://www.w3.org/2000/svg" width="578.667" height="578.667" viewBox="0 0 434 434"><style>@media (prefers-color-scheme:dark){.a{fill:#fff}}</style><g class="a"><path d="M185.3 6c-2.5 1-2.9 2-1.3 3.6.6.6.8 1.8.5 2.6-.5 1.2-2.5 1.7-7.5 2-7.1.4-10.3 1.9-8.4 3.8.6.6 4.9 1.2 9.5 1.4 4.6.2 10.2 1.1 12.4 1.9 2.2.8 7.7 2.5 12.3 3.7 8.1 2.2 10.6 4 5.7 4-1.4 0-4.7-1.1-7.3-2.4-6.4-3.2-16.4-5.1-19.3-3.6-1.2.7-3.7.9-6 .5-2.2-.4-6.6-.4-9.8 0-4.6.5-6 1.1-6.4 2.6-.3 1-.1 2.2.5 2.5.5.3 1.2-.3 1.5-1.5.3-1.2 1-2.1 1.7-2.1.8 0 1.1 5 1.1 17 0 15.9-.1 16.7-1.3 12.3-2.6-9.2-3.5-16.6-2.2-18.6.8-1.4.8-2.2 0-3.2-1.7-2-13.9-4.7-20-4.3-4.8.3-5.5.6-7.1 3.5-3 5.4-3.8 10.3-4 25.3-.2 11.9 0 14.5 1.2 14.5.9 0 1.6-1.5 2-4.2.3-2.5 1.9-6.1 3.7-8.7 2.6-3.6 3.2-5.4 3.2-9.8.1-3 .7-6.1 1.5-7.2 2.1-2.7 2.5-1.8 1.4 3.4-.5 2.5-1.7 8.3-2.7 13-2.2 10.9-2.5 38.8-.3 41.3 1 1.3 1.8 1.4 3.2.6 2.3-1.2 2.4-3.6.3-7.9-1.4-2.8-1.5-5-.8-15.4.4-6.6.8-13.9.8-16.1.1-2.2.4-4.5.8-5 .3-.6.9-3.1 1.3-5.8.6-4.1 1-4.7 3.1-4.7 3 0 3.4-.8 3.5-7 .1-2.8.6-5.3 1-5.6.5-.3.9.4.9 1.5 0 1 .5 2.1 1.1 2.3.6.2 1.9 4.4 2.9 9.3 5 24.5 5.7 26.5 8.5 26.5.7 0 1.8 1.4 2.4 3.1.6 1.7 1.5 2.8 2 2.5 1.1-.7.3-8.3-1.2-11.1-.6-1.1-1.1-5.3-1.2-9.2-.1-5.4-.6-7.8-1.9-9.2-1.7-1.8-1.7-2 0-2.9 1-.6 1.5-1.6 1.1-2.5-1-2.7.7-2.7 9.6-.3 4.7 1.3 8.8 2.1 9.1 1.8 1.2-1.1.5-3.2-1.6-5.2-1.8-1.6-1.9-2-.5-2 .9 0 2-.7 2.5-1.6.6-1.1 1.1.4 1.6 5.2s1.4 8.1 3.2 10.6c3 4.7 4.9 5 4 .8-.6-3.1-.6-3.1 3.2-2.4 2 .4 5.3 1.3 7.2 2.1 2 .8 6 1.3 9.5 1.2 6-.3 9.1.7 11.5 3.5.7.9 2.4 1.6 3.7 1.6 1.4 0 5.3 2 8.7 4.4 3.3 2.4 7.7 5.2 9.6 6.2 9.5 5.3 23.5 13.9 25.4 15.8 1.2 1.1 2.8 3.7 3.7 5.6 2.2 4.6 7.6 12 8.9 12 2.1 0 .9-4.3-3-10.7-2.2-3.7-4-7.1-4-7.6s-1-2-2.2-3.1c-1.3-1.2-2.9-3.1-3.6-4.2-.8-1.2-1.5-1.5-1.8-.8-1 2.4-13.5-3.5-22-10.3-2.3-1.8-4.4-3.3-4.7-3.3-.3 0-4.4-2.3-9.1-5-4.7-2.8-9.9-5.6-11.6-6.2-2.8-.9-2.9-1.1-1.3-2.3 2.1-1.6 3.8-.8 8.1 3.5 3.2 3.2 5.1 3.7 6.9 1.9.8-.8 1.9-.6 4.1.5 3.5 1.8 7.8 2.1 8.7.6.9-1.4 5.5.6 9 4 1.7 1.6 4.9 4.5 7.3 6.5 2.3 2.1 4.2 4.4 4.2 5.1 0 .8.4 1.4.9 1.4s3.1 2.2 5.8 4.8c2.6 2.7 5.7 5.2 6.8 5.6 2 .7 2 .8.1 2.1-1.8 1.4-1.8 1.7 2.3 9.7 3.3 6.5 4 8.4 2.8 8.6-2.8.6-2.6 4 .5 7.9 3.8 4.8 4.9 7 10.3 20.1 7.5 18.6 15.6 36.6 17 38.1 1.2 1.3 1.5 1.2 2.1-.4.8-2-2.7-13.3-7.1-23-5.8-12.7-9.6-23.8-8.3-24.6 2.8-1.8 7.1 3.6 9.6 12.1 3.1 10.6 5.2 18.3 6.7 25.3 1.8 8.4 2.8 9.8 5.3 7.4 1.3-1.3 1.3-2.1.4-4.2-.6-1.3-2.5-7.8-4.1-14.2-1.6-6.5-3.9-14.7-5-18.2-1.2-3.5-2.1-7.3-2.1-8.5 0-1.1-1.1-4.1-2.5-6.5-2.8-4.8-2.9-5.1-1.5-5.1 3.8 0 15.5 35.7 20.4 62.5 3.5 19 4.4 21.2 7.7 19.4 1.9-1 2.7-3.9 1-3.9-1.3 0-2.7-4.8-4.7-16-1.3-7.8-5.7-26.8-8.9-39-.6-2.3-.5-2.2 1.3.5 1 1.7 2.4 5.9 3 9.3.6 3.5 2 7.6 3.2 9.1 1.1 1.6 2 4.1 2 5.6 0 3 1.6 6.5 3 6.5 1.6 0-2.1-13.6-4.7-17.7-1.7-2.5-1.2-4 .7-2.8 3.1 1.9 6.2 13.7 8 30 2.6 23.4 2.2 22 5 21.7 1.8-.2 2.1 0 1.1.6-1 .8-1.1 1.7-.2 4.3 1.7 5.4 4.9 21.5 6.3 31.9 1.7 12.7 1.7 47.3 0 57.5-5.2 31.6-11.6 49.7-24.8 70.1-10.7 16.6-21.2 27.5-35.9 37.2-23.5 15.5-47.6 23.4-69.9 23.1l-11.2-.2.1-2.6c0-3.3-4.4-5.8-7.5-4.1-3 1.6-2.6 4.8.8 5.6 4.9 1.1 4.8 1.2-1.3 1.3-8.1.1-29.6-2.4-37.5-4.5-24.8-6.3-54.2-24.1-69-41.6-11.8-14-24.2-41.1-30.6-66.8-2.6-10.3-3-14-1.4-14 1.7 0 1.1-2.8-1-4.8-1.7-1.5-1.9-2.8-1.6-9.7.2-4.4-.3-12.4-1.2-17.7-1.2-7.7-1.3-10.6-.4-13.5.6-2.1 1.4-6.9 1.8-10.7.8-8.7 1.1-9.6 3.8-9.6 3.5-.1 6.9-3.3 6.1-5.8-.6-2-4.5-3.2-4.5-1.4 0 .4-.8 1.2-1.8 1.9-1.7 1-1.9.7-1.7-3.5.1-2.6.7-6.6 1.5-8.9.9-3 1-4.6.2-5.5-1.5-1.9-.7-16.7 1.2-20.3 1-1.9 1.4-4.3 1-6.5l-.5-3.5 1.6 2.7c.9 1.6 2 2.8 2.5 2.8.6 0 1 1 1 2.3 0 1.2.9 3.9 1.9 5.9 1.1 1.9 1.8 3.8 1.6 4-.9.8-1.3 8.5-.5 9.7 1.1 1.8 3 .5 3-2.1 0-1.1 1.8-7.3 3.9-13.7 5-14.8 7.1-22.3 7.1-25.3 0-1.3.6-4.8 1.4-7.8 1-3.9 1.1-5.9.4-6.8-.8-.9-.5-1.9 1.1-3.5 1.1-1.3 2.1-3.4 2.1-4.6 0-4 6.6-25.2 9.7-31.1.7-1.4 1.3-3.2 1.3-4 0-.8.7-2.4 1.5-3.4.8-1.1 1.5-2.6 1.5-3.4 0-.9 1.1-3 2.5-4.8 2.9-3.7 3.3-6.7.9-5.7-1.4.5-1.4.2 0-3.1.9-2.1 2.9-5.8 4.6-8.3 5.3-7.7 8.2-14.4 7.7-17.2-.3-1.4-.2-4.7.2-7.4.6-3.3.4-5.5-.6-7.3-.7-1.5-1.3-3.9-1.3-5.5s-.5-2.9-1.1-2.9c-1.8 0-4.9 2-4.9 3.3-.1 2.3-6 10-9.7 12.6-2.1 1.4-6.6 4.2-10.2 6.1-3.5 1.9-6.3 3.9-6.2 4.4.2.5-.3 1.2-1 1.7-2.7 1.6-.1 1.9 4.7.4 2.7-.8 5.2-1.5 5.7-1.5 2.6 0-1.9 8.8-6.9 13.5-1.8 1.7-4.9 6.6-6.9 11s-5 10.8-6.6 14.2c-1.6 3.5-2.9 6.9-2.9 7.7 0 1.5-2.4 3.9-3.2 3.1-.3-.3-1.2 1.6-2.1 4.2-1.3 4-1.4 5-.2 6.3 1.4 1.6.9 7.4-.5 6.5-.5-.3-1.4 1.1-2 3-.6 1.9-1.7 3.8-2.4 4.2-.7.5-2.1 3.3-3.1 6.3s-2.8 8-4.1 11.1c-2.8 6.7-4.7 14.8-4.2 18.6l.3 2.8 1.8-3.4c.9-1.9 1.7-3.8 1.7-4.3s.8-2.5 1.7-4.6c.9-2 2.2-5.5 2.9-7.7 1.7-5.6 1.7-2.6-.1 7.9-.8 4.9-1.2 9.3-.9 9.7.6 1-1.6 14.9-2.8 17.5-.6 1.2-.8 4.2-.6 6.5.3 3.4 0 4.9-1.5 6.4-5.7 5.8-10.9 14.3-12.8 20.7-3.4 11-2.6 25.4 2 37.3 1.5 4 2.4 5.1 4.5 5.3 3.1.4 3.4 1.8.6 2.7-3.9 1.2-1.3 5.9 2.7 4.9 1.9-.5 2.1-.1 2.2 7 .2 8 1.9 18.8 5.2 32.1 8.5 34.1 28.4 69.4 45.9 81.5 1.9 1.3 4.2 3.1 5 4 .8.9 3.8 3 6.5 4.8 2.8 1.7 5.5 3.5 6 4 1.3 1 16.4 8.3 23 11 6.8 2.8 17.9 6.3 21.8 6.8 1.8.3 3.9.7 4.7 1 .8.3 4.9 1 9 1.6 8.2 1.2 55.5 1.3 57.3.1.7-.4 1.9-.8 2.7-1 5.7-.8 24.5-7.5 33-11.8 9.2-4.6 10.5-5.3 20.1-11.8 4.7-3.1 8.8-5.7 9.2-5.7 1.1 0 16.7-16.2 16.7-17.4 0-.7 1.5-2.9 3.4-5 3.2-3.4 4.7-5.6 9.9-14.6 7.3-12.5 11.7-23.3 11.7-28.7 0-1.2.5-3.5 1.1-5 .6-1.5 1.6-3.9 2.1-5.3.6-1.4 1.4-3.2 1.8-4.1 1.6-3.1 4.3-15.5 5.4-24.4 1.1-8.5 1.2-9 3.6-9 1.5 0 2.9-.8 3.6-2.3.6-1.2 2.1-3.3 3.3-4.6 1.1-1.2 2.1-3.3 2.1-4.7 0-1.3 1-4 2.2-5.9 3.4-5.5 5.8-10.3 5.8-11.7 0-.7.5-1.3 1-1.3.6 0 1-.7 1-1.5 0-.7.6-1.8 1.4-2.2 2.5-1.5 3.8-5.6 3.9-11.9 0-5.1-.6-7.2-2.9-11.1-2.7-4.7-3.7-5.8-8.1-8.9-1.9-1.4-2.5-1.3-6.2.5-2.2 1.2-4.9 2.1-6 2.1-2.5 0-5.5 4-4.1 5.4.7.7 1.5.3 2.6-1.2 2.4-3.4 9.5-3.1 12.9.5 3.3 3.6 4 6.2 4 15.3 0 7-.4 8.2-4.8 16.9-2.6 5.1-4.7 10.2-4.7 11.2 0 1.6-7.1 9.9-8.4 9.9-.2 0-.1-4 .2-8.9.3-5.5 0-10.2-.7-12.2-.8-2.4-.8-3.5-.1-3.7.6-.2 2.1-2.5 3.4-5.1 1.9-3.7 2.3-5.6 1.9-9.5-.5-4.3-.9-5-3.9-6.2-2-.9-3.4-2.1-3.4-3.2 0-1.9-2.1-11.2-5.5-24.6l-2.3-9 2-2.7c1.1-1.5 1.7-3.2 1.4-3.7-.4-.6 1-1.9 3-2.8 3.7-1.8 3.9-2.8 1.9-7.8-.6-1.3-.5-1.7.2-1.3 1.5.9 6.7 14.5 9.4 24.2 1.2 4.4 2.7 8.6 3.2 9.2 1.5 2 2.7 1.5 2.7-1 0-3.2-4.3-18.8-7.6-28.1-2.2-5.9-2.6-8-1.6-8.3 1.8-.7 8.3-9.4 7.6-10.4-1-1.7-3.9-.8-7.4 2.2l-3.4 2.9-1.9-3.6c-1-2-1.7-3.7-1.5-3.7 2.7-1.4 4.3-2.8 6-5.5 2-3.2 2-3.3.2-3.8-1.3-.3-2.7-2.5-4-6.1l-2-5.6 2.3-2.3c2.8-2.8 2.8-4.2.2-7.3l-2-2.4-2.3 2.2-2.3 2.2-3.2-5.6c-3-5.3-3.1-5.8-1.5-6.9 1.2-.9 1.5-2 1-3.9-.8-3.3-2.4-3.5-3.5-.6-.7 2.1-.8 2.1-3.1-1.1-2.1-2.9-2.2-3.3-.7-4.2 2.1-1.1 2.2-3.2.3-4.7-1-.8-1.6-.9-2.1-.1-.3.5-1.2 1-1.8 1-1.8 0-8.7-12.4-8.1-14.6.5-2.2-4.1-7.8-5.6-6.9-1.2.7-12.5-13-12.5-15.2 0-1.6-1.4-2.6-5-3.8-1.9-.6-1.9-.7-.2-2 1.5-1.1 1.6-1.3.2-1.9-.8-.3-2.1-.3-2.7-.1-.7.2-2.7.6-4.4.8-2.6.4-3.4.1-4.3-1.9-.6-1.5-1.9-2.4-3.3-2.4-2.9 0-13-10.3-12.2-12.4.4-1.1 0-1.6-1-1.6-.9 0-1.6-.4-1.6-.8 0-.5-2.8-2.9-6.2-5.5-3.5-2.5-7.9-6-9.9-7.6-5.5-4.6-15-10.1-17.5-10.1-2.9 0-3.9 1.6-2.4 3.5 1.6 2 1.4 1.9-6.1-1.1-10.4-4.2-12.8-4.7-16-3.4-2.5 1.1-3.9.7-13.6-3.8-5.9-2.8-13.5-5.5-16.7-6.1-3.3-.6-6-1.1-6-1-.1 0-1.1.4-2.3.9zM207 18.1c7.2 1.9 14.8 5.5 13.8 6.4-.2.3-3.3-.6-6.9-2-3.5-1.3-9.3-3.3-12.9-4.4-8.8-2.6-3.7-2.7 6 0zM174.9 29c5.1 0 3.5 1.8-1.9 2.2-4.6.3-5 .1-5-2 0-1.9.3-2.1 1.9-1.2 1.1.5 3.3 1 5 1zm-36.4 10.5c-2.2 4.6-4.2 7.9-4.4 7.3-.8-2.3 2.1-11.9 3.7-12.5 1-.4 2.1-1.2 2.5-2 .4-.7 1.1-1.3 1.5-1.3.4 0-1.1 3.8-3.3 8.5zm9.8-6.1c.3.8-.5 2.4-1.9 3.7-1.3 1.2-2.4 1.9-2.4 1.4 0-.4.8-1.4 1.8-2.1 1-.8 1.2-1.3.5-1.4-.7 0-1-.7-.7-1.5.8-1.9 2-1.9 2.7-.1zm47.1 2.1c.4 1 1.4 1.3 3.4.9 1.9-.4 5.5.3 10.1 2 6.5 2.3 13.1 5.3 13.1 5.9 0 .1-3.7.2-8.3.2-9.8 0-19.7-2.9-19.7-5.6 0-1-.3-2.4-.6-3.3-.3-.9-.2-1.6.4-1.6.5 0 1.2.7 1.6 1.5zm32.7 3.1c2.8 1.4 4.8 2.8 4.5 3.1-.8.8-10.6-3.8-10.6-4.9 0-1.2.6-1 6.1 1.8zm25.8 5.7c2.5 1.7 5.5 3.9 6.5 4.9 2.3 2.1 3.7 2.3 5.3.7.7-.7 1.5-.6 2.7.6 2.3 2.3 7.2 2.5 6.8.3-.2-1.2.2-1.6 1.1-1.2.8.3 1.3 1.3 1 2.3-.2.9.3 2.3 1.1 3 .9.8 1.6 2 1.6 2.7 0 .8.9 1.4 1.9 1.4 1.1 0 2.3.4 2.6 1 .3.5-.8.9-2.7.9-1.8 0-4.8.4-6.6 1-4 1.2-5.6.7-10.3-3.3-1.9-1.7-6.8-5.6-10.8-8.6-13-9.8-11.9-8.7-8.1-8.8 2.2 0 4.9 1 7.9 3.1zm-128.5.2c.3.8.3 2.1 0 2.8-.4 1.1-5.6 4.2-10.8 6.6-.6.2 1.2-2.1 4-5.2 5.3-6.1 5.9-6.5 6.8-4.2zm118.4 3.3c2.8 1.9 5 3.7 4.9 3.9-.9.8-11.6-5.3-12-6.9-.6-2.1-.3-2 7.1 3zm47 8.2c.6 0 1.8 1.3 2.7 3 1.8 3.5 1.9 4.8.3 3.2-.7-.7-2.5-1.2-4-1.2-2.1 0-2.8-.5-2.8-2 0-1.1-.6-2-1.2-2-.9 0-.8-.3.2-1 1.2-.7 1.1-1.3-1-3.7-2-2.2-1.8-2.2 1.1.4 1.9 1.8 4 3.3 4.7 3.3zm-172 5.7c-1.2 3.7-2.8 7.2-3.4 7.8-.6.5-1.7 2.5-2.4 4.3-.7 1.9-2.6 4.6-4.2 6.2-1.5 1.6-2.8 3.8-2.8 4.9 0 1.2-.4 2.1-1 2.1-.5 0-1 .9-1 1.9 0 1.1-.4 2.3-1 2.6-.6.4-.8-1.2-.4-4.2l.5-4.8-2 2.3c-1.1 1.3-2.3 4-2.7 6-.4 2-1.2 4.8-1.9 6.2-.7 1.4-1.8 5.2-2.5 8.5-.8 3.3-1.7 6.5-2.2 7.1-.4.6-1.1 3.2-1.4 5.8-.5 3.1-1.1 4.6-2.2 4.6-1 0-1.3.7-.9 2.2.3 1.1-.1 3.5-1 5.1-2.5 5-7.3 21-6.8 22.7.3.9-.1 3-.9 4.6-.8 1.6-1.9 6.7-2.3 11.4l-.9 8.5-.9-9c-.6-6.9-.4-11.5.9-19.5 2.1-13.4 5.5-26 7-26 1.4-.1 7.6-9.9 7.6-12.3 0-2.6-1.6-1.3-4.6 3.9-2.8 4.8-4.1 5.3-2.4 1 .5-1.5 1-3.7 1-5 0-2.2 7-22.3 9-25.8.6-1 1-2.3 1-3 0-.7.8-2.2 1.6-3.3 1.6-1.9 1.6-1.9.9.5-.6 2.2-.3 2 2.9-1.4 2-2.1 3.6-4.7 3.6-5.8 0-3.2 1.8-5.7 3.8-5.1 1.1.3 2.8-.5 4.3-2.1 1.3-1.4 2.9-2.6 3.5-2.6.6 0 2.1-1.8 3.3-4.1 1.3-2.2 2.5-3.8 2.8-3.6.2.3-.6 3.6-1.9 7.4zM300 58.4c0 .3-.4.8-1 1.1-.5.3-1 .1-1-.4 0-.6.5-1.1 1-1.1.6 0 1 .2 1 .4zm-11.9 10.3c-1.5 2-1.7 2-2.8.6-1.3-1.7-1.7-5.5-.8-6.5.3-.3 1.7.4 2.9 1.5 2.3 2 2.3 2.2.7 4.4zM307 67c2.1 0 9.6 7.2 14.9 14.4 4.5 6.1 4.8 6.8 2.6 5.9-.9-.3-2.1.2-2.8 1.1-1.1 1.6-1.6 1.3-5.1-2.4-3.5-3.8-3.7-4.3-2.7-7.2 1.5-4.3 1.5-4.4-2.4-7.4l-3.6-2.7-2.4 2.3c-3.2 3-4.9 1.6-5-3.9l-.1-3.9 2.5 1.9c1.3 1 3.1 1.9 4.1 1.9zm-28.4.6c1.9 2 3.3 3.9 3 4.1-.8.8-7.6-4.8-7.6-6.3 0-2.1.7-1.7 4.6 2.2zm13.9 8.3c-.7 2.3-2.5 2.9-2.5.8 0-1.4 2.1-3.9 2.8-3.3.2.3.1 1.4-.3 2.5zm7.5.5c0 .8-.7 1.6-1.5 2-1.5.5-2.1-1.4-.8-2.7 1.1-1.2 2.3-.8 2.3.7zm5.6 7.1c1.5 2.3 1.4 2.5-.5 4.7-2 2.1-2.2 2.1-3.8.5-1.6-1.5-1.6-1.8 0-3.5.9-1 1.7-2.4 1.7-3 0-1.8.8-1.4 2.6 1.3zm-193.5 6.8c-.6.6-1.1 1.7-1.1 2.3 0 .7-1.4 2.8-3.1 4.6-1.7 1.8-3.9 5-5 7-2.4 4.7-3 4.8-2.3.5.4-2.9.4-3-.6-.8-.6 1.3-1.3 2.2-1.5 1.9-1-1 .8-6.7 2.2-7.2.8-.3 1.1-.2.8.3-1 1.6 1.2 2.1 2.5.6.7-.9 1-2.5.6-4.1-.6-2.1-.4-2.5.8-2.1 1 .4 1.6.1 1.6-.8 0-.7.9-1.7 2-2 1.1-.3 2.3-1.8 2.7-3.3.7-2.7.8-2.7 1.1-.3.2 1.3-.1 2.8-.7 3.4zm209 6.9c4.1 4.5 9.6 10.9 12.2 14.2 2.7 3.4 5.7 7.2 6.8 8.6 3.4 4.1 4.4 6.9 3.1 8.2-.8.8-1.5.8-2.6-.1-1.7-1.4-3.6-.7-3.6 1.4 0 .7 1.8 3.1 4.1 5.2 5 4.7 13.9 17.6 13.9 20.3 0 1 .5 2.2 1 2.5.6.3 1 1.1 1 1.8 0 1.6-1.3-.1-4.1-5.3-5.5-10.3-18.3-26-21.1-26-.7 0-2.6-2-4.1-4.5-1.6-2.5-3.3-4.5-3.7-4.5-1 0-.1 3.8 1.1 4.6.5.3.9 1.5.8 2.7 0 1.2-1.3-1.2-2.9-5.3-1.6-4.1-4.2-9.9-5.7-12.8l-2.8-5.2 3-2.4c3-2.4 3-2.4 1.1-4.5-1.1-1.2-2.6-1.9-3.3-1.6-.7.3-2 .8-2.8 1.1-1.1.5-1.5-.1-1.5-2.3 0-2.9.7-4.3 2-4.3.4 0 4 3.7 8.1 8.2zm13.5 2.1c2.7 4.3 3.3 6.2 2.5 7-.8.8-1.8.4-3.6-1.3-2-1.9-2.4-3-2-5.1.6-2.8-.8-6.9-2.5-6.9-.5 0-1.2 1-1.6 2.2-.6 2.1-.7 2.1-2 .3-1.2-1.6-1.2-2 .1-2.8.8-.4 1.5-1.6 1.5-2.5.1-2.1 2.5.7 7.6 9.1zM299 90.8c0 .5-.9 1.7-2.1 2.8-1.3 1.1-1.8 2.6-1.5 3.9.5 2 .5 2-.9.1-2-2.7-1.9-3.5.8-5.7 2.4-2 3.7-2.4 3.7-1.1zm7.4 9.8c.5 1.2 1.4 1.5 3.6 1.1 1.6-.4 3.2-.2 3.5.3.3.6.1 1-.6 1s-2.1.7-3.1 1.6c-1.6 1.6-1.9 1.5-3.7-.7-2.1-2.5-2.7-4.9-1.2-4.9.5 0 1.2.7 1.5 1.6zm-2.5 7.8c2.8 3 5.1 6 5.1 6.6 0 .6-1.2-.3-2.6-2-2.5-2.9-2.8-3-4.5-1.5-1.6 1.6-1.8 1.5-2.7-1.7-.5-1.8-1.3-4.1-1.7-5.1-1.3-3.2 1.2-1.7 6.4 3.7zM79 111.9c0 .5-.7 1.4-1.5 2.1-1.6 1.4-1.8 1-.9-1.4.6-1.7 2.4-2.2 2.4-.7zm20 .9c0 1-.4 2.2-.9 2.7-1.5 1.8-5.2 18.9-5 23.3.2 2.7-.2 4.6-1 5.1-1 .7-1 1.2 0 2.8 1 1.7.9 2.5-1 5.1-1.2 1.7-2.5 5-3 7.4-.5 2.4-1.6 7-2.6 10.3-.9 3.3-2.2 8-2.9 10.5-1.6 6-2.6 3.3-2.6-7.4 0-6.9.6-10.1 4-20 2.2-6.5 4.3-12.3 4.8-13 1.3-1.8 8.2-25.4 8.2-28.2 0-.2.5-.4 1-.4.6 0 1 .8 1 1.8zm245.5 1.9c2.6 3.9 3.1 5.3 1.7 5.3-1.3 0-6.2-7.2-5.6-8.2.8-1.3 1.2-1 3.9 2.9zm-38.5 3.9c0 .9-.7 1.4-1.7 1.2-2.5-.5-2.8-2.8-.4-2.8 1.2 0 2.1.6 2.1 1.6zm42.7 15.6c-1.6 1-2.1.2-1.3-1.9.6-1.5.9-1.5 1.6-.3.6.9.5 1.7-.3 2.2zm-279 6c-.3.7-.5.2-.5-1.2s.2-1.9.5-1.3c.2.7.2 1.9 0 2.5zM352 142c0 .5-.2 1-.4 1-.3 0-.8-.5-1.1-1-.3-.6-.1-1 .4-1 .6 0 1.1.4 1.1 1zm-283.3 3.2c-.3.8-.6.5-.6-.6-.1-1.1.2-1.7.5-1.3.3.3.4 1.2.1 1.9zm293.3 4.7c0 .3-.4 1.2-.9 2-.7 1.1-1.2.6-1.9-2-.5-1.9-1.3-4.3-1.7-5.4-.4-1.1.4-.5 1.9 1.4 1.4 1.9 2.6 3.7 2.6 4zm-9 13.9c2.8 5.6 5 11 5 12 0 .9-1.2-.8-2.6-3.8-6.1-13.3-6.9-15-7.8-15-.4 0-.6 1.5-.3 3.2.3 1.8 1.2 7.7 2 13 .9 5.4 1.8 10.2 2.1 10.7.4.5.2 1.2-.4 1.6-.5.3-1 1.6-1.1 2.8-.1 1.2-.9-4.6-1.9-12.8-1.7-13.4-2.7-19.6-4.5-27.5-1-4 3.8 3.9 9.5 15.8zm6.4.4c-.4.6-1 .5-1.5-.3-1.4-2.2-1-3.3.6-1.9.8.7 1.2 1.7.9 2.2zM64.9 208.7c.1 2.8-.3 5.5-.9 5.8-.6.4-1-1.7-1-5.4 0-3.4-.4-6.1-.9-6.1-1.4 0-3.4 6.8-2.8 9.8.3 1.4-.2 3.6-1 4.8-.8 1.2-1.8 4.9-2.3 8.1-.4 3.2-1.1 7.4-1.5 9.4-.5 2.6-.2 4 .9 5.2.9.8 1.6 2.3 1.6 3.2 0 .8.6 2.6 1.4 3.8.8 1.2 1.7 4.9 2.1 8.2l.7 6-2-2.5c-1-1.4-3.8-5.8-6.1-9.9-3.5-6.2-4.2-8.3-4.3-13.5-.2-8.6 1.8-16.6 4.3-16.6 1 0 1.9-.5 1.9-1.1 0-.6-.7-.9-1.5-.5-.8.3-1.5 0-1.5-.7 0-1.7 5.5-11 7.4-12.6.9-.7 1.6-1.9 1.6-2.6 0-2.3 2.5-2.3 3.2-.1.3 1.2.6 4.4.7 7.3zm-2.3 16.1c.1 2-.1 5.3-.4 7.2-.4 2.9-.6 3.1-1.3 1.5-.7-1.7-.8-1.6-.8.7-.1 2.7-2.1 4.1-2.1 1.5 0-2.3 2.1-14 2.7-14.9.9-1.5 1.6 0 1.9 4zm301.8 10.1c.8 1.2-.3 4.1-1.5 4.1-.5 0-.9-.9-.9-2s-.7-2-1.5-2c-1.5 0-2-1.2-.9-2.3.7-.7 4 .8 4.8 2.2z"/><path d="M287.5 57c.3.5.8 1 1.1 1 .2 0 .4-.5.4-1 0-.6-.5-1-1.1-1-.5 0-.7.4-.4 1zm37.1 49.5c-1.1 2.9-.6 10.1.8 12 1.3 1.8 1.4 1.8 4.6-.1 4.2-2.4 4.6-3.7 1.9-6.3-1.2-1.1-2.7-3-3.3-4.2-1.4-2.9-3.2-3.4-4-1.4zM53.2 230c0 1.9.2 2.7.5 1.7.2-.9.2-2.5 0-3.5-.3-.9-.5-.1-.5 1.8zM154.3 42.2c.3.9.3 1.9 0 2.2-.3.3-.7 2.3-.8 4.5-.2 2.9.2 4.4 1.6 5.7 1.9 1.7 1.9 1.6 1.9-4.2-.1-3.9-.6-6.6-1.7-7.9-1.1-1.4-1.4-1.5-1-.3zm28.7 5.5c0 2.6 5.3 8.3 15.2 16.3 6.2 5 13.6 11.1 16.5 13.5 4.8 4.2 7.3 5.5 7.3 3.7-.1-1.7-7-8-23.8-21.6-4.1-3.3-8.5-7.5-9.9-9.3-2.3-3-5.3-4.4-5.3-2.6zm-6.9 2.2c-1.1.7-.4 1.4 2.7 3 2.3 1.2 4.4 2.1 4.7 2.1 1.3 0 .3-2.7-1.5-4.3-2.2-1.9-3.8-2.1-5.9-.8zm25.9 5.9c0 3.6 24.8 26.7 26.6 24.9 1.5-1.4-1.4-5.2-8.8-11.9-4.5-4-9.9-9-12-11.1-4.3-4.1-5.8-4.6-5.8-1.9zm-28.5 5.4c2.3 7.6 17.4 22.7 28.2 28.2 3.9 2 4.3 2 4.3.2 0-.7-2-2.7-4.4-4.2-5-3.3-24.5-20.3-24.7-21.6-.1-.4-.3-1.3-.4-1.8-.1-.6-.3-1.5-.4-2 0-.6-.8-1-1.7-1-1.1 0-1.4.6-.9 2.2zM85 62.6c-6.3 3.6-9.7 8.4-4.9 6.9 3.4-1.1 10.9-6.7 10.9-8.2 0-1.8-.8-1.6-6 1.3z"/><path d="M178.7 62.8c-1 1.5.7 2.9 7.3 6.2 7.4 3.7 30.9 22.2 29 22.8-.7.3-1.6-.2-2.1-.9-.4-.7-1.1-1-1.5-.6-.8.8 3.2 6.3 9.1 12.5 2.9 3.1 4.6 4.1 5.8 3.6 2.5-.9 2.1-2.2-2.4-7.1-2.2-2.4-4.5-5.6-5-7.1-.6-1.5-3.6-4.8-6.7-7.5-3.1-2.6-8.7-7.3-12.4-10.5-8.9-7.7-19.8-13.6-21.1-11.4zm20.4 7.5c6 5.1 7.1 5.8 7.7 5.2.9-.9-6.9-7.5-8.8-7.5-1 .1-.6.8 1.1 2.3zm-73.4.4c-1.1 1-.8 6.3.3 6.3.6 0 1 1 1 2.2 0 3.3 1.1 6.8 2.1 6.8s2.4-6.7 2-9.5c-.2-1.1-.9-2.4-1.7-2.8-.8-.4-1.4-1.5-1.4-2.2 0-1.6-1.2-2-2.3-.8zm107.3 2c0 2.3 1.1 3.8 3.3 4.6.9.4 1.6 1.2 1.5 1.8-.4 1.5 4.8 4.6 5.8 3.6 1.2-1.1-3.4-9.7-5.1-9.7-.8 0-1.5-.5-1.5-1 0-.6-.9-1-2-1-1.2 0-2 .7-2 1.7zm-112 8.9c-1.3 3.3-1.3 6.4 0 6.4 1 0 1.9-1.7 3.4-6.8 1.1-3.2-2.2-2.9-3.4.4zm61 10.2c0 1.9 3.7 4.1 6.8 4 3.3-.1 4.1-1.5 2-3.6-.9-.9-1.5-.9-2.5 0-1 .8-1.7.8-2.5 0-1.4-1.4-3.8-1.6-3.8-.4zm84 10.4c0 1.8 1.8 3.4 2.8 2.4.3-.4-.2-1.4-1.1-2.3-1.6-1.6-1.7-1.6-1.7-.1zm25.6 14.6c-.4.6-1 3.4-1.3 6.2-.4 3.9-.3 5 .8 5 3.1 0 4.4-2.3 4-7.1-.2-2.4-2.7-5.4-3.5-4.1zm-114.1 23.1c-1.1.5-2.8 1.8-3.9 3l-1.9 2-2.5-1.9c-2.2-1.8-2.8-1.9-4.6-.7-1.2.8-2.2 2.4-2.4 3.6-.4 2.6-1.3 2.7-3.5.1-2.3-2.8-4.5-1.5-5.7 3.4-1.9 7.3-2 7.3-3.8 4.4-1.9-3.2-5.5-5.3-7.7-4.4-.9.3-2.4 2.4-3.3 4.6-1.8 4.2-3.2 4.9-5.2 2.5-.7-.8-1.9-1.5-2.6-1.5-1.5 0-4.4 3.9-4.9 6.7-.2 1-.4 2-.4 2.2-.1.2-1-.8-2.2-2.3-2.8-3.6-4.6-3.3-6.4 1-1.5 3.6-1.6 3.6-3.5 1.9-1-.9-2.6-1.5-3.4-1.2-1.8.7-3.3 9.4-1.9 11.6 1.7 2.7 2.8 1.8 3.1-2.7.3-4.6.4-4.7 3.1-3 2.3 1.4 5.1-.4 5.1-3.3 0-2.5 1.2-2.4 2.8.1 2 3.3 5 2.5 6.9-1.8 1-2 1.9-3.9 2-4.1.2-.2 1.2.4 2.2 1.3 2.8 2.5 5 1.7 7.5-2.9 1.1-2.2 2.2-4.2 2.4-4.4.1-.3 2 1.3 4.2 3.4 3.3 3.2 4.4 3.8 5.8 2.9 1.3-.9 3.4-6 4.1-10.4.1-.2.8.6 1.7 1.8 2.4 3.4 5.2 2.9 6-1.3.6-3.6 2.7-4.7 3.8-2 .9 2.4 4.6 1.7 8.3-1.5 1.8-1.7 4.1-3 4.9-3 1 0 1.4-.8 1.2-2.2-.3-2.5-2.2-3.1-5.3-1.9zm124.3 2.8c-.7 2.5.1 4.3 1.8 4.3 1.1 0 1.4-.8 1.2-2.7-.4-3.1-2.3-4.2-3-1.6zm-60.7 22.4c-3.5 2.1-4.1 2.7-7.6 6.9-1.9 2.2-1.6 2.1 3.7-.8 3.2-1.8 6.4-3.2 7.1-3.2.8 0 1.9 1.8 2.6 3.9 1.6 5.5 4.2 6.1 8.7 2.2 4.1-3.7 7.4-3.9 11.7-.9 2.5 1.8 4.3 2.2 8.5 2 10-.5 11.8-.4 19.7.8 16.2 2.4 16.8 2.4 18.2.4.7-1 1.3-2.9 1.3-4.2 0-2.1-.3-2.3-2.2-1.7-1.3.4-3 .7-3.8.7-4.3-.1-18-2.2-21.8-3.3-3.7-1.2-4.6-1.1-7.1.4-3.7 2.2-5.7 2.1-8.9-.2-5-3.4-9.6-4.4-13.5-2.8-1.9.8-3.8 2-4.1 2.6-1.1 1.7-2.6 1.3-2.6-.7 0-4.4-4.5-5.4-9.9-2.1z"/><path d="M113.4 173.4c-.8 2.2.3 3.3 1.8 1.8.9-.9.9-1.5 0-2.4-.9-.9-1.3-.7-1.8.6zM57.2 175c0 1.4.2 1.9.5 1.2.2-.6.2-1.8 0-2.5-.3-.6-.5-.1-.5 1.3zm79.7 14.9c-4.7 1.7-9.3 4.2-12.1 6.7-4.2 3.6-4.6 4.4-5.3 9.8-.6 5.9-.6 6 4.4 13.3 2.7 4 4.5 7.3 3.9 7.3-2.2 0 1.4 2.9 4.5 3.6 1.7.3 4.2 1.4 5.5 2.2 4.8 3.2 17.8 3.7 23.1.9 1.9-.9 3.9-1.7 4.5-1.7 1.6 0 11.6-10 11.6-11.5 0-.7.9-2 2-3 1-.9 2.4-3.3 3-5.1 1-2.8.9-3.7-.4-5-1.8-1.8-2-3-.6-3.9.5-.3.8-2.5.7-4.8-.3-4.1-.4-4.2-5.7-6.1-3-1-7.6-2.7-10.2-3.7-7.2-2.9-19.2-2.5-28.9 1zm28.4 4.2c5 1.5 7.8 2.9 9.1 4.7 1.1 1.4 1.4 2.2.8 1.8-1.8-1.1-1.5 1.5.4 3.5 1.4 1.6 1.4 1.8-.5 2.4-1.2.3-2.1 1.2-2.1 1.9s-.8 2-1.8 2.9c-1.4 1.3-2.1 1.4-3 .5-1.7-1.7-2.7-.2-1.2 1.7 1.1 1.3.7 1.7-2.3 3-2 .8-4.4 1.5-5.2 1.5-.9 0-1.4.3-1.1.8.2.4-.2 1.6-1 2.7-1.2 1.6-1.4 1.7-1.4.2 0-.9-.4-1.7-.9-1.7s-1.8-.3-2.8-.6c-1.3-.4-1.5-.3-.4.4 2.1 1.5-.1 2.1-6.3 1.8-4.2-.2-6.1-.7-6.8-1.9-1.1-2-7.7-2.3-9.7-.5-1.1 1.1-1.2.9-.6-1 .5-1.6.2-2.2-.9-2.2-2.3 0-4.1-3.9-2.2-4.6 1.2-.5 1.1-.9-.5-2.5-1-1-1.9-2.7-1.9-3.7 0-1.5.8-1.9 4.1-1.8 2.6.1 4.4-.4 4.6-1.2.3-.7.1-1.2-.4-1.1-4.5.8-4.2-1.2.8-4 3.8-2.2 4.1-2.2 6-.5 1.8 1.6 1.9 1.6 1.9-.5 0-1.3.9-2.5 2.3-3.1 4.1-1.6 15.4-1.1 23 1.1zm-21.6 34.1c-.3.8-.6.5-.6-.6-.1-1.1.2-1.7.5-1.3.3.3.4 1.2.1 1.9z"/><path d="M152 195c0 1.6-.7 2-3 2-2 0-4.3 1.2-7 3.7-3.5 3.1-4 4-3.5 6.5.7 2.9-.3 3.6-2.2 1.7-.7-.7-1.5-.5-2.7.6-1.8 1.9-2.2 4-.4 2.9 2.1-1.3 7.2-1.2 9.2.2 3 2.1 6.2 1.7 7.9-.9.9-1.5 2.5-2.3 3.9-2.3 2 .1 2.3-.4 2.6-3.6.2-2.7-.3-4.3-1.9-5.9-1.5-1.5-1.8-2.4-1-2.8 1.3-.8.4-4.1-1-4.1-.5 0-.9.9-.9 2zm107.8 1.8c-7.1.9-13.8 5.4-15.3 10.3-.5 1.9-1.4 4-1.9 4.8-.6.9-.3 1.7.8 2.3.9.5 1.6 1.5 1.6 2.2 0 .8 1.1 1.6 2.4 2 1.5.4 2.6 1.7 3.2 3.8.6 2.2 1.8 3.4 3.4 3.9 1.4.4 2.1.7 1.6.8-.5.1-.2.8.5 1.7 1.1 1.4 1.1 1.8-.4 2.9-1.6 1.1-1.6 1.3-.1 1.9.8.3 2.6.3 3.9 0 1.3-.3 4.7-.1 7.5.5 4.3.9 6.4.8 13.8-1.1 8.6-2.1 18.3-7.2 21-10.9.7-1 1.9-1.6 2.7-1.3 1.9.8 2-2.2.1-3.3-1.3-.8-3.8-4.8-4.2-6.8-.8-4.3-2.7-6.3-8-9-7.9-3.9-22-5.9-32.6-4.7zm14.6 4.3c13.9 2.5 18.6 4.1 20.6 7 2.1 2.8 2.6 7.4 1.1 9.8-.6 1-1.1.1-1.6-2.8-.5-3.2-1.1-4.1-2.3-3.7-6.7 1.8-7.1 1.7-7.4-1.1-.2-1.9-1-2.9-2.3-3.1-1.8-.2-2 .3-2 5.5v5.8l-3.8-.1c-2.1-.1-4-.4-4.3-.7-.3-.3.6-2.5 2-5 4.3-7.3 3.8-8.3-4.5-9.1-4-.3-7.4-.4-7.7-.1-.5.5-.5 3.6 0 8.5.2 1.5 1.6 3.3 3.7 4.7 2.8 1.9 3 2.3 1.3 2.3-1.1 0-2.9-1.1-4-2.5s-2.5-2.5-3-2.5c-.6 0-1.2-1.9-1.4-4.2-.3-4.4-2.8-6.7-2.8-2.6 0 3.5-1.2 4.7-4.3 4.1-1.9-.4-2.7-1.1-2.5-2.2.2-.9 1.1-1.5 2.1-1.3.9.2 1.7-.2 1.7-.8 0-.5-.4-1-1-1-.5 0-1-.7-1-1.6 0-1.2.6-1.5 2.3-1 1.4.3 3.7-.2 5.8-1.4 4-2.2 7.1-2.4 15.3-.9zm-23.6 14.6c-.8 1-1.3.9-2.4-.2-2.2-2.2-1.7-3.4 1-2.2 1.8.9 2.2 1.5 1.4 2.4zm5.2 2.3c-1.9 1.3-3 1.3-3 0 0-.6 1-1 2.3-1 1.8 0 1.9.2.7 1zm107-19.1c0 .5.7 2.8 1.5 5.1 1.9 5.4 1.9 5.2-1 4.4-2.3-.6-2.5-.3-2.5 2.4 0 4 1.7 5 2.9 1.8.6-1.3 1.7-2.9 2.7-3.4 1.5-.9 1.5-1.2-.1-6.1-.9-2.8-2.1-5.1-2.6-5.1s-.9.4-.9.9zm-20.7 18.8c-1.8.6-1.6 3.3.1 3.3.8 0 1.7-.4 2-.8.7-1.2-.7-3-2.1-2.5zm-132.2 4.2c-1 1.8-1 2.6.1 4.1 19.1 26.5 27.7 42.4 29.6 54.9 1.7 11.6.4 13.1-11.8 13.1-5.4 0-9.1.5-9.8 1.2-1.6 1.6-1.5 5 .1 7.1 1.1 1.5 2.2 1.6 12.6.4 12.8-1.5 13.5-2 14.6-9.4.8-5.3 0-12.5-2.2-20.3-3.3-11.5-15.6-32.7-27.3-47-1.1-1.4-2.6-3.4-3.4-4.4-1.3-1.9-1.4-1.9-2.5.3zm136.3 6.6c-1 2.5 1 3.9 3.6 2.5s2.2-3.4-.8-3.8c-1.3-.2-2.5.3-2.8 1.3zm-278 7c-1 2.5.4 4.5 3.1 4.5 3 0 4.3-2.4 2.5-4.5-1.6-1.9-4.9-1.9-5.6 0zm277.6 9.9c0 3.1 3.3 4 5.5 1.6s1.1-4-2.6-4c-2.4 0-2.9.4-2.9 2.4zm-279.7 3.2c-.3.8-.1 2.6.5 3.8.8 1.8 1.6 2.2 3.6 1.9 3.5-.7 4.1-1.9 2.2-4.8-1.8-2.8-5.4-3.3-6.3-.9zm3.2 12.4c-1.4 2.2.6 5 3.5 5 3.5 0 4.5-1.3 3-4-1.1-2.1-5.4-2.8-6.5-1zm277.2-.3c-.4.3-.7 2.1-.7 3.9 0 3.5 2.2 5 5.4 3.8 2.6-1 3.2-5.2 1-6.9-2-1.5-4.7-1.9-5.7-.8zM68.4 271.5c-1.1 2.6.4 4.5 3.5 4.5 3.9 0 4.7-1.4 2.1-4-2.4-2.4-4.8-2.6-5.6-.5zm277.6 9.1c-.6 1.4-1 3.6-1 5 0 2 .5 2.4 3 2.4 5.1 0 7.1-7.2 2.4-9-3.4-1.3-3.3-1.4-4.4 1.6zm-3.6 16.2c-.6.4-1.9 2.1-2.8 3.9-1.4 2.9-1.4 3.3 0 4.7 1.8 1.9 2 1.9 4.5.5 3.1-1.6 4.3-5.8 2.3-8-1.9-2.1-2.4-2.2-4-1.1zm-9.7 4.3c-.7 2.8.1 4.9 2 4.9.9 0 1.3-.6 1-1.4-.3-.8-.1-1.6.4-1.8.6-.2.2-1.1-.9-2.1-1.9-1.7-2-1.7-2.5.4zm-262.3 2.4c-.9 2.1 1.4 4.5 4.2 4.5 1.9 0 2.4-.5 2.4-2.4 0-3.5-5.5-5.2-6.6-2.1zm21.2 10.1c-1.1 2.8 3.8 7 6.8 5.8 2.2-.9 2-2.1-.9-4.9-2.8-2.9-5-3.2-5.9-.9zm14-.3c-1.8 1.3-1.7 1.5.7 3.9s2.4 2.7.9 4.2c-2.2 2.1-.7 4.7 3.4 5.8 3.9 1.1 5.4.3 5.4-2.6 0-1.7-.9-3-2.7-4l-2.8-1.5 2.8-.1c2 0 2.7-.5 2.7-1.9 0-4.4-6.4-6.7-10.4-3.8zm-28.2 4.1c-1 2.7.1 5.1 2.5 5.4 3.6.5 4.7-1.2 2.7-4.2-1.8-2.9-4.4-3.4-5.2-1.2zm60.1-.7c-4 .6-4.9 1.6-4.1 4.8.6 2.5.9 2.6 6.9 2.3 5-.2 6.2-.6 6.5-2.1.2-1-.4-2.7-1.4-3.8-1.7-1.9-2.2-2-7.9-1.2zm25.5 3.2c-2.9.8-3.8 4.2-1.6 6 .8.7 3.5 1.1 6.3.9 4.5-.3 4.8-.5 5.1-3.2.5-4.3-3-5.6-9.8-3.7zm170.1 4.2c-1.1 3.6-1 4.4.3 5.7 1.4 1.4 1.8 1.4 4.1-.8 3.5-3.3 3.2-8.4-.6-8.8-2.2-.3-2.7.2-3.8 3.9zm-147.2-.4c-1.4 3.7 0 4.6 7.5 5.1 6.3.4 6.5.4 8-2.6 2.1-4 2-4.5-.4-3.9-1.1.3-2.3.1-2.6-.4-.3-.5-3-.9-6-.9-5 0-5.5.2-6.5 2.7zm29.4 0c-1.8.6-1.6 3.8.3 5.7 1 1.1 3.4 1.6 7.5 1.6 5 0 5.9-.3 5.9-1.8 0-3.2-2.4-4.9-7.5-5.5-2.7-.2-5.6-.3-6.2 0zm58.9 1.4c-2.9 1.1-2.9 4.7.1 5.8 4.4 1.7 10.6 2.8 11.7 2.1 1.4-.8.1-3.8-2.3-5.9-2.4-1.9-7-2.9-9.5-2zm-28.4 1c-2.2 1.2-2.3 3.3-.2 5.3 1.1 1.1 3.5 1.6 8 1.6 5.7 0 6.4-.2 6.4-2 0-1.1-1-2.6-2.2-3.4-3.1-1.9-9.9-2.7-12-1.5zm55.7 2.9c-1.4 2.2.7 5 4.6 6 6.4 1.8 8.2-1.2 3-4.9-3.1-2.2-6.6-2.7-7.6-1.1zM96 330.8c0 1 .5 2.3 1.2 3 .7.7 2 1.2 3 1.2 2.1 0 2.4-3 .6-4.8-1.8-1.8-4.8-1.5-4.8.6zm227.2.3c-4.2 1.6-2.1 5.3 4.4 7.5 2.3.8 3.6.8 4.3.1 3.8-3.8-3-9.7-8.7-7.6zM81 334.3c0 3.1 1.8 4.7 5.2 4.7 3.5 0 3.9-3.1.6-5.4-3.3-2.4-5.8-2-5.8.7zm55.7.4c-2.1 2.1 3.2 9.3 6.9 9.3 2.1 0 1.8-6.3-.4-8.3-1.9-1.7-5.3-2.2-6.5-1zm153.1 1c-4.2 1.7-4.6 3-2 6.2 1.6 2.1 2 2.1 7.1.9 6.4-1.4 7.4-3.3 3.7-6.5-3.2-2.7-3.8-2.7-8.8-.6zm-187.1 2.4c-3.4 2-1.4 6.9 2.9 6.9 2.3 0 4.1-3.1 2.9-5-1.2-1.9-4-2.9-5.8-1.9zm54.7.3c-1.5 4 2.1 8 5.4 6 3.7-2.4 2.1-7.4-2.5-7.4-1.3 0-2.6.6-2.9 1.4zM115 341c0 2.4 4.1 5.3 6.3 4.4 1.2-.4 2 .4 3.1 3 1.5 3.5 3.8 4.7 5.1 2.5.4-.6 1.2-.8 1.9-.6 2.1.8 5.6-1.2 5.6-3.3 0-3-3.6-6.3-5.8-5.1-1.1.6-2.4.6-3.5 0-1-.6-2.6-.8-3.6-.4-1 .3-2.4-.1-3.1-1-1.9-2.3-6-2-6 .5zm66.7-1.3c-1.6 1.5-.5 4.3 2.1 5.7 1.5.7 6.2 2.1 10.5 3 4.3.9 8.5 2 9.5 2.4 2 1.1 13.2 4.9 25.1 8.7 6.4 2 8.6 2.3 9.2 1.4 1.4-2.3-.3-3.7-10.9-8.4-5.9-2.6-13.5-6-16.8-7.6-3.4-1.6-8.1-3.5-10.5-4.3-4.4-1.6-17-2.2-18.2-.9zm89.6.8c-2.1.9-3.3 2.1-3.3 3.4 0 2.9 2.9 5.3 5.6 4.7 7.8-2 9.1-3.9 5.2-7.6-2.5-2.3-3.2-2.4-7.5-.5zm33.1 4.9c-.3.9.1 2.8 1.1 4.2 1.3 2 2.3 2.5 4.8 2.2 5.7-.5 4.1-6.2-2-7.4-2.5-.5-3.4-.3-3.9 1zm19.7 2.8c-2.1 4.8-1.3 6.8 2.4 6.8 4.3 0 6.5-6 3.4-9.1-2.8-2.8-3.8-2.4-5.8 2.3zm-234.5-1.3c-1.3 2.1 1.4 5.2 4.1 4.9 2.8-.3 3.7-1.6 2.5-3.5-1-1.6-5.8-2.7-6.6-1.4zm60.7 1.8c-1.6.6-1.7 3.5-.1 5.1 1.7 1.7 7.5 1.5 8.1-.2 1.3-3.5-3.8-6.6-8-4.9zm132 .4c-3.7 1.1-3.9 1.7-1.9 4.4 1.9 2.7 10.9 2.8 11.4.2.5-2.2-2.5-5.7-4.7-5.6-.9 0-3.1.5-4.8 1zm15 1.1c-2.8 1.4-2.9 3.2-.3 5.8 2.2 2.2 4.2 2.5 7.1 1 2.5-1.4 2.4-2.6-.6-5.5-2.7-2.8-3-2.8-6.2-1.3zm-129.7 1.4c-.7 1.8 1.9 5.4 3.9 5.4 2.1 0 2.5-2.9.8-5-2.1-2.4-3.9-2.6-4.7-.4zm83.1-.9c-1.1 1-.8 2 .8 2.7 1 .4 1.5-.1 1.5-1.4 0-2-1.1-2.6-2.3-1.3zm14.1 6c-2.8 3.3-3 4.4-1.2 6.4 2.2 2.4 4.5 2.4 7.2 0 2.7-2.3 2.8-4.3.4-6.4-2.4-2.2-4.5-2.1-6.4 0zm-150.5 0c-1.8.7-1.6 5 .3 5.7 4.4 1.7 6.9-1.1 3.9-4.4-1.9-2.1-2.2-2.2-4.2-1.3zm12 2.9c-1 2.7 1.1 4.8 5.8 5.6 6.7 1.2 7.8-2 2-5.5-3.7-2.2-7-2.2-7.8-.1zm118 .3c-1.3 1.1-2.3 2.2-2.3 2.5 0 1 5.4-.6 6.2-1.8 2.1-3.1-.6-3.5-3.9-.7zm-146.7 2.7c-.9 2.2 1.1 4.4 4 4.4 3.1 0 3.9-1.7 1.8-4.1-2.1-2.3-5-2.5-5.8-.3zm212.1 2.2c-3.5 3.6-2.8 6.2 1.7 6.2 1.8 0 3.7-.5 4.4-1.2 1.8-1.8 1.4-5.6-.7-6.8-2.6-1.3-2.3-1.4-5.4 1.8zm-162.2-.2c-1.4 1.4-1.4 1.9-.1 3.8 1.2 1.7 2.2 2 6.2 1.8 6.8-.5 8.4-3.1 3.4-5.7-3.8-1.9-7.4-1.9-9.5.1zm137.8-.9c-2.7.5-2.9 2-.7 5.1 1.2 1.8 2.5 2.2 6.3 2.2 5.6 0 7.1-1.8 4.6-5.6-1.5-2.4-4.3-2.8-10.2-1.7zm-33.4 1.6c-.8.7-2.2 1.6-3.1 2-2.3.8-2.3 2 .1 4.1 1.8 1.7 2.1 1.7 4.5.1 2.9-1.9 3.4-4.6 1.2-6.4-1.1-.9-1.7-.9-2.7.2zm-88.3 1.9c-2.8 3.9-1.5 8.8 2.2 8.2.6-.1 1.6-.2 2.2-.3.5 0 1.4-1 2-2.1 1.3-2.4 0-5.4-3-7-1.5-.8-2.2-.6-3.4 1.2zm9.8.2c-.8 3.4-.2 5.7 1.8 7 1.4.8 2.2.6 4-1.1 1.8-1.9 2-2.7 1.2-5-1.3-3.9-6.1-4.5-7-.9zm-36.6 2.6c-3.7 4.2-.8 8.8 4.7 7.4 2.8-.7 4.4-4.7 2.8-7.3-1.5-2.4-5.5-2.5-7.5-.1zm61.5 1.7c-1.7.6-1.6 3.8 0 5.2.8.6 2.8 1.4 4.5 1.7 2.8.6 3.2.4 3.2-1.5 0-1.1.5-2.1 1-2.1.6 0 1-.5 1-1 0-.6-.9-1-1.9-1-1.1 0-2.3-.5-2.6-1-.6-1-3.1-1.2-5.2-.3zm22 1.9c-1 2.5 1.1 4.9 4.2 4.9 3.6 0 4.2-1.8 1.6-4.4-2.5-2.5-4.9-2.7-5.8-.5zm53.5-.5c-3 1.1-3.5 2.8-1.8 6 1.3 2.3 7.6 2.6 10.6.5 1.8-1.4 1.8-1.7.4-4.3-1.7-3.1-4.8-3.8-9.2-2.2zm-84.4 1.3c-.7 1.9 1.2 7 3.1 8.6 2 1.7 5.5-.5 5.5-3.4 0-4-7.4-8.5-8.6-5.2zm-80 1.1c-1 2.5 2.4 5.5 6.3 5.5 2.6 0 3.3-.4 3.3-1.9 0-2.4-1.7-3.7-5.8-4.6-2.5-.5-3.3-.3-3.8 1zm129.3-.8c-.4.3-.7 1.5-.7 2.5s-.4 1.8-1 1.8c-1.4 0-1.2 3.3.3 4.9 1 1.1.8 1.2-.9.3-1.6-.8-2.6-.8-3.8.1-1.6 1.2-1.4 1.7 2.1 6 3.4 4.3 4.2 4.7 8.1 4.7 3.8 0 4.2-.2 4.2-2.4 0-1.9.4-2.3 2-1.9 1.1.3 2.6.1 3.3-.5.6-.5 2.6-1.3 4.4-1.6 4.5-1 5.9-3 4.3-6.1-1.6-2.9-3.7-3.1-10.6-1-5.7 1.7-6.4 1.8-6.4.6 0-.5.9-1.1 2-1.4 2.5-.6 2.5-1.8.1-4.5-1.7-2.1-6-3-7.4-1.5zM243 387c0 .5-.6 1-1.4 1-.8 0-1.8-.5-2.1-1-.3-.6.3-1 1.4-1 1.2 0 2.1.4 2.1 1zm52.6-7.1-2.8 2.9 2.2 1.5c1.6 1.1 3 1.3 5.3.6 1.8-.5 3.3-.9 3.4-.9.9 0 .1-4.8-.9-5.8-1.9-1.9-4.2-1.4-7.2 1.7zm-85.5.1c-1.4.3-2.6 1-2.8 1.6-.7 2.1 3.2 5.3 6.7 5.6 3 .3 3.5 0 3.8-2 .6-4.1-2.9-6.4-7.7-5.2zm-61.4 1.1c-1.1.7-1.6 1.7-1.2 2.9.4 1.2-.1 2.2-1.2 2.9-1.7.9-1.7 1.2-.3 3.8 1 1.8 2.5 2.9 4.3 3.1 2.6.3 3.2-.4 2.8-3.4-.1-.7.8-1.4 1.9-1.7 2.6-.7 2.7-4.8.2-7-2.1-1.9-3.9-2.1-6.5-.6zm115.5 2.1c.3 2.3 5 5.6 8.1 5.7 2.5.1 3.2-2.5 1.3-5.4-1.3-2-2.5-2.5-5.7-2.5-3.6 0-4 .2-3.7 2.2zm-41.7-.1c-2.1 3.2 3.7 9.3 6.4 6.6 1.6-1.6 1.3-4.2-.7-6-2.1-1.9-4.8-2.2-5.7-.6zm-57.5 4.7c0 3 2.4 5.4 5 5 5.2-.7 2.8-6.8-2.7-6.8-1.6 0-2.3.6-2.3 1.8zm119-.8c0 .8-1.2 2.6-2.6 4.1-3.5 3.7-2.6 5.9 2.4 5.9 6.7 0 8.1-3.8 3.2-8.5-1.8-1.8-3-2.3-3-1.5zm-159 1.7c0 2.7 2 4.3 5.3 4.3 2.5 0 2.8-.3 2.5-2.8-.3-2.3-.8-2.7-4-3-3.2-.3-3.8 0-3.8 1.5zm67.7.5c-1.1.5-3.2.8-4.8.4-2.5-.5-3.1-.1-4.5 2.5-1.6 3.2-1.2 7.9.6 7.9.6 0 1 1.2 1 2.7 0 3.7 1.4 5.7 3.4 5 1.1-.4 1.6-1.9 1.6-4.4 0-5.1 1.2-6.7 4.4-6.1 3.3.7 6.5-2.5 5-4.9-1.8-3-4.7-4.3-6.7-3.1zm14.3 4.3c-1 1.2-.9 2 .3 3.8.9 1.3 1.7 3.9 1.9 5.8.2 2.4 1.1 3.8 3 4.9 3.6 2 5.3.5 3.9-3.4-1-2.4-.9-2.6.7-1.7 1.8 1 14.5.7 16.2-.4 1.4-.9 1.2-2.6-.5-4.9-1.1-1.5-2.6-1.9-6.9-1.7-3 .1-5.7-.3-6.1-.9-.9-1.5-3.6-1.2-5 .6-1 1.4-1.3 1.3-2.8-1-2-3-2.9-3.2-4.7-1.1zm-65.3 1.1c-1.2 1.2-.8 3.2.9 4.8 1.8 1.8 7 2.1 8 .5 1.4-2.3-6.9-7.3-8.9-5.3zm123.1 5c-5.6 3-2.5 6.9 4.6 5.9 3.9-.6 4.6-1.1 4.6-2.9 0-4.5-4.1-5.8-9.2-3zm-104.4 5.9c-1.2 3 .4 4.6 4.3 4.3 4.1-.3 5.1-1.8 2.8-4.2-2.1-2-6.4-2.1-7.1-.1zm84.9 1.2c-1.2.2-2.7 1.1-3.3 1.9-2.1 2.5.6 4.4 6.1 4.4 4.6 0 4.9-.2 4.9-2.5 0-1.8-.7-2.8-2.6-3.5-1.4-.6-2.6-.9-2.7-.9-.1.1-1.2.4-2.4.6zm-71.3 1.8c-1.9 2.2.5 4.5 4.6 4.5 2.6 0 3.4-.4 3.4-1.8 0-3.9-5.5-5.7-8-2.7zm14 2c-1.9 2.3-.5 4.3 3.4 5 4.1.8 5.6.1 5.6-2.5 0-3.6-6.6-5.4-9-2.5zm35.7.3c-1 1.1-1.4 2.6-1 4.1.4 1.7.3 2.2-.5 1.7-.7-.4-1.2-.3-1.2.3s1.3.8 3.3.4c8.1-1.5 9.8-3.7 5.2-6.7-3.1-2-3.8-2-5.8.2z"/></g></svg>