<?xml version="1.0" encoding="UTF-8" standalone="no"?>
<!-- Created with Inkscape (http://www.inkscape.org/) -->

<svg
   version="1.1"
   id="svg2"
   xml:space="preserve"
   width="795.9115"
   height="775.79413"
   viewBox="0 0 795.9115 775.79413"
   xmlns="http://www.w3.org/2000/svg"
   xmlns:svg="http://www.w3.org/2000/svg"><defs
     id="defs6"><clipPath
       clipPathUnits="userSpaceOnUse"
       id="clipPath18"><path
         d="M 0,0 H 800 V 600 H 0 Z"
         id="path16" /></clipPath></defs><g
     id="g8"
     transform="matrix(1.3333333,0,0,-1.3333333,-95.243573,775.79413)"><g
       id="g10" /><g
       id="g12"><g
         id="g14"
         clip-path="url(#clipPath18)"><path
           d="M 0,0 H 800 V 600 H 0 Z"
           style="fill:#ffffff;fill-opacity:1;fill-rule:nonzero;stroke:none"
           id="path20" /><path
           d="M 0,0 H 800 V 600 H 0 Z"
           style="fill:#ffffff;fill-opacity:1;fill-rule:nonzero;stroke:none"
           id="path22" /><g
           id="g24"
           transform="matrix(1,0,0,-1,0,600)"><path
             d="m 613.357,115.6664 0.2095,0.9778 c 5.1231,23.9072 10.2458,47.8136 15.3687,71.7199"
             style="fill:none;stroke:#000000;stroke-width:2;stroke-linecap:butt;stroke-linejoin:miter;stroke-miterlimit:4;stroke-dasharray:none;stroke-opacity:1"
             id="path26" /></g><path
           d="m 618.7628,482.0148 -6.7048,8.3812 -2.6821,-10.3926 4.1906,3.3524 z"
           style="fill:#000000;fill-opacity:1;fill-rule:nonzero;stroke:none"
           id="path28" /><path
           d="m 616.364,506.364 c 3.5147,-3.5148 3.5147,-9.2132 0,-12.728 -3.5148,-3.5147 -9.2132,-3.5147 -12.728,0 -3.5147,3.5148 -3.5147,9.2132 0,12.728 3.5148,3.5147 9.2132,3.5147 12.728,0"
           style="fill:#ffffff;fill-opacity:1;fill-rule:nonzero;stroke:none"
           id="path30" /><g
           id="g32"
           transform="matrix(1,0,0,-1,0,600)"><path
             d="m 616.364,93.63605 c 3.5147,3.51471 3.5147,9.21315 0,12.72795 -3.5148,3.5147 -9.2132,3.5147 -12.728,0 -3.5147,-3.5148 -3.5147,-9.21324 0,-12.72795 3.5148,-3.51471 9.2132,-3.51471 12.728,0"
             style="fill:none;stroke:#000000;stroke-width:2;stroke-linecap:butt;stroke-linejoin:miter;stroke-miterlimit:4;stroke-dasharray:none;stroke-opacity:1"
             id="path34" /></g><g
           id="g36"
           transform="matrix(1,0,0,-1,0,600)"><path
             d="m 621.4049,199.995 c -24.9188,5.1811 -49.8376,10.3623 -74.7566,15.5434 l -0.9799,0.2038"
             style="fill:none;stroke:#000000;stroke-width:2;stroke-linecap:butt;stroke-linejoin:miter;stroke-miterlimit:4;stroke-dasharray:none;stroke-opacity:1"
             id="path38" /></g><path
           d="m 548.0201,389.6494 -8.4219,-6.6537 10.3761,-2.7453 -3.3268,4.211 z"
           style="fill:#000000;fill-opacity:1;fill-rule:nonzero;stroke:none"
           id="path40" /><path
           d="m 637.364,408.364 c 3.5147,-3.5148 3.5147,-9.2132 0,-12.728 -3.5148,-3.5147 -9.2132,-3.5147 -12.728,0 -3.5147,3.5148 -3.5147,9.2132 0,12.728 3.5148,3.5147 9.2132,3.5147 12.728,0"
           style="fill:#050043;fill-opacity:1;fill-rule:nonzero;stroke:none"
           id="path42" /><g
           id="g44"
           transform="matrix(1,0,0,-1,0,600)"><path
             d="m 637.364,191.636 c 3.5147,3.5148 3.5147,9.2132 0,12.728 -3.5148,3.5147 -9.2132,3.5147 -12.728,0 -3.5147,-3.5148 -3.5147,-9.2132 0,-12.728 3.5148,-3.5147 9.2132,-3.5147 12.728,0"
             style="fill:none;stroke:#000000;stroke-width:2;stroke-linecap:butt;stroke-linejoin:miter;stroke-miterlimit:4;stroke-dasharray:none;stroke-opacity:1"
             id="path46" /></g><path
           d="m 659.364,343.364 c 3.5147,-3.5148 3.5147,-9.2132 0,-12.728 -3.5148,-3.5147 -9.2132,-3.5147 -12.728,0 -3.5147,3.5148 -3.5147,9.2132 0,12.728 3.5148,3.5147 9.2132,3.5147 12.728,0"
           style="fill:#ffffff;fill-opacity:1;fill-rule:nonzero;stroke:none"
           id="path48" /><g
           id="g50"
           transform="matrix(1,0,0,-1,0,600)"><path
             d="m 659.364,256.636 c 3.5147,3.5148 3.5147,9.2132 0,12.728 -3.5148,3.5147 -9.2132,3.5147 -12.728,0 -3.5147,-3.5148 -3.5147,-9.2132 0,-12.728 3.5148,-3.5147 9.2132,-3.5147 12.728,0"
             style="fill:none;stroke:#000000;stroke-width:2;stroke-linecap:butt;stroke-linejoin:miter;stroke-miterlimit:4;stroke-dasharray:none;stroke-opacity:1"
             id="path52" /></g><path
           d="m 626.364,243.364 c 3.5147,-3.5148 3.5147,-9.2132 0,-12.728 -3.5148,-3.5147 -9.2132,-3.5147 -12.728,0 -3.5147,3.5148 -3.5147,9.2132 0,12.728 3.5148,3.5147 9.2132,3.5147 12.728,0"
           style="fill:#ffffff;fill-opacity:1;fill-rule:nonzero;stroke:none"
           id="path54" /><g
           id="g56"
           transform="matrix(1,0,0,-1,0,600)"><path
             d="m 626.364,356.636 c 3.5147,3.5148 3.5147,9.2132 0,12.728 -3.5148,3.5147 -9.2132,3.5147 -12.728,0 -3.5147,-3.5148 -3.5147,-9.2132 0,-12.728 3.5148,-3.5147 9.2132,-3.5147 12.728,0"
             style="fill:none;stroke:#000000;stroke-width:2;stroke-linecap:butt;stroke-linejoin:miter;stroke-miterlimit:4;stroke-dasharray:none;stroke-opacity:1"
             id="path58" /></g><path
           d="m 659.364,186.364 c 3.5147,-3.5148 3.5147,-9.2132 0,-12.728 -3.5148,-3.5147 -9.2132,-3.5147 -12.728,0 -3.5147,3.5148 -3.5147,9.2132 0,12.728 3.5148,3.5147 9.2132,3.5147 12.728,0"
           style="fill:#ffffff;fill-opacity:1;fill-rule:nonzero;stroke:none"
           id="path60" /><g
           id="g62"
           transform="matrix(1,0,0,-1,0,600)"><path
             d="m 659.364,413.636 c 3.5147,3.5148 3.5147,9.2132 0,12.728 -3.5148,3.5147 -9.2132,3.5147 -12.728,0 -3.5147,-3.5148 -3.5147,-9.2132 0,-12.728 3.5148,-3.5147 9.2132,-3.5147 12.728,0"
             style="fill:none;stroke:#000000;stroke-width:2;stroke-linecap:butt;stroke-linejoin:miter;stroke-miterlimit:4;stroke-dasharray:none;stroke-opacity:1"
             id="path64" /></g><path
           d="m 650.364,60.36395 c 3.5147,-3.51471 3.5147,-9.21319 0,-12.7279 -3.5148,-3.51471 -9.2132,-3.51471 -12.728,0 -3.5147,3.51471 -3.5147,9.21319 0,12.7279 3.5148,3.51471 9.2132,3.51471 12.728,0"
           style="fill:#ffffff;fill-opacity:1;fill-rule:nonzero;stroke:none"
           id="path66" /><g
           id="g68"
           transform="matrix(1,0,0,-1,0,600)"><path
             d="m 650.364,539.636 c 3.5147,3.5148 3.5147,9.2132 0,12.728 -3.5148,3.5147 -9.2132,3.5147 -12.728,0 -3.5147,-3.5148 -3.5147,-9.2132 0,-12.728 3.5148,-3.5147 9.2132,-3.5147 12.728,0"
             style="fill:none;stroke:#000000;stroke-width:2;stroke-linecap:butt;stroke-linejoin:miter;stroke-miterlimit:4;stroke-dasharray:none;stroke-opacity:1"
             id="path70" /></g><g
           id="g72"
           transform="matrix(1,0,0,-1,0,600)"><path
             d="m 520.833,535.477 c 16.3173,8.2704 32.6344,16.5408 48.9517,24.8111 l 0.8937,0.453"
             style="fill:none;stroke:#000000;stroke-width:2;stroke-linecap:butt;stroke-linejoin:miter;stroke-miterlimit:4;stroke-dasharray:none;stroke-opacity:1"
             id="path74" /></g><path
           d="m 565.4756,36.51453 10.733,-0.05866 -6.3929,8.62158 -0.0293,-5.36651 z"
           style="fill:#000000;fill-opacity:1;fill-rule:nonzero;stroke:none"
           id="path76" /><path
           d="m 591.364,38.36395 c 3.5147,-3.51471 3.5147,-9.21319 0,-12.7279 -3.5148,-3.51471 -9.2132,-3.51471 -12.728,0 -3.5147,3.51471 -3.5147,9.21319 0,12.7279 3.5148,3.51471 9.2132,3.51471 12.728,0"
           style="fill:#aecbfe;fill-opacity:1;fill-rule:nonzero;stroke:none"
           id="path78" /><g
           id="g80"
           transform="matrix(1,0,0,-1,0,600)"><path
             d="m 591.364,561.636 c 3.5147,3.5148 3.5147,9.2132 0,12.728 -3.5148,3.5147 -9.2132,3.5147 -12.728,0 -3.5147,-3.5148 -3.5147,-9.2132 0,-12.728 3.5148,-3.5147 9.2132,-3.5147 12.728,0"
             style="fill:none;stroke:#000000;stroke-width:2;stroke-linecap:butt;stroke-linejoin:miter;stroke-miterlimit:4;stroke-dasharray:none;stroke-opacity:1"
             id="path82" /></g><g
           id="g84"
           transform="matrix(1,0,0,-1,0,600)"><path
             d="m 499.175,474.57 c 3.0163,13.2715 6.0325,26.543 9.0487,39.8145 l 0.2219,0.9762"
             style="fill:none;stroke:#000000;stroke-width:2;stroke-linecap:butt;stroke-linejoin:miter;stroke-miterlimit:4;stroke-dasharray:none;stroke-opacity:1"
             id="path86" /></g><path
           d="m 503.0114,86.89099 6.8082,-8.29748 2.5531,10.42508 -4.1488,-3.40415 z"
           style="fill:#000000;fill-opacity:1;fill-rule:nonzero;stroke:none"
           id="path88" /><path
           d="m 518.364,75.36395 c 3.5147,-3.51471 3.5147,-9.21319 0,-12.7279 -3.5148,-3.51471 -9.2132,-3.51471 -12.728,0 -3.5147,3.51471 -3.5147,9.21319 0,12.7279 3.5148,3.51471 9.2132,3.51471 12.728,0"
           style="fill:#ffffff;fill-opacity:1;fill-rule:nonzero;stroke:none"
           id="path90" /><g
           id="g92"
           transform="matrix(1,0,0,-1,0,600)"><path
             d="m 518.364,524.636 c 3.5147,3.5148 3.5147,9.2132 0,12.728 -3.5148,3.5147 -9.2132,3.5147 -12.728,0 -3.5147,-3.5148 -3.5147,-9.2132 0,-12.728 3.5148,-3.5147 9.2132,-3.5147 12.728,0"
             style="fill:none;stroke:#000000;stroke-width:2;stroke-linecap:butt;stroke-linejoin:miter;stroke-miterlimit:4;stroke-dasharray:none;stroke-opacity:1"
             id="path94" /></g><path
           d="m 559.364,167.364 c 3.5147,-3.5148 3.5147,-9.2132 0,-12.728 -3.5148,-3.5147 -9.2132,-3.5147 -12.728,0 -3.5147,3.5148 -3.5147,9.2132 0,12.728 3.5148,3.5147 9.2132,3.5147 12.728,0"
           style="fill:#ffffff;fill-opacity:1;fill-rule:nonzero;stroke:none"
           id="path96" /><g
           id="g98"
           transform="matrix(1,0,0,-1,0,600)"><path
             d="m 559.364,432.636 c 3.5147,3.5148 3.5147,9.2132 0,12.728 -3.5148,3.5147 -9.2132,3.5147 -12.728,0 -3.5147,-3.5148 -3.5147,-9.2132 0,-12.728 3.5148,-3.5147 9.2132,-3.5147 12.728,0"
             style="fill:none;stroke:#000000;stroke-width:2;stroke-linecap:butt;stroke-linejoin:miter;stroke-miterlimit:4;stroke-dasharray:none;stroke-opacity:1"
             id="path100" /></g><g
           id="g102"
           transform="matrix(1,0,0,-1,0,600)"><path
             d="m 480.8701,465.9218 -0.9984,0.0571 c -14.3205,0.8183 -28.641,1.6365 -42.9614,2.4548"
             style="fill:none;stroke:#000000;stroke-width:2;stroke-linecap:butt;stroke-linejoin:miter;stroke-miterlimit:4;stroke-dasharray:none;stroke-opacity:1"
             id="path104" /></g><path
           d="m 477.7495,129.092 9.3105,5.3399 -9.8582,4.2445 2.6699,-4.6553 z"
           style="fill:#000000;fill-opacity:1;fill-rule:nonzero;stroke:none"
           id="path106" /><path
           d="m 503.364,141.364 c 3.5147,-3.5148 3.5147,-9.2132 0,-12.728 -3.5148,-3.5147 -9.2132,-3.5147 -12.728,0 -3.5147,3.5148 -3.5147,9.2132 0,12.728 3.5148,3.5147 9.2132,3.5147 12.728,0"
           style="fill:#ffffff;fill-opacity:1;fill-rule:nonzero;stroke:none"
           id="path108" /><g
           id="g110"
           transform="matrix(1,0,0,-1,0,600)"><path
             d="m 503.364,458.636 c 3.5147,3.5148 3.5147,9.2132 0,12.728 -3.5148,3.5147 -9.2132,3.5147 -12.728,0 -3.5147,-3.5148 -3.5147,-9.2132 0,-12.728 3.5148,-3.5147 9.2132,-3.5147 12.728,0"
             style="fill:none;stroke:#000000;stroke-width:2;stroke-linecap:butt;stroke-linejoin:miter;stroke-miterlimit:4;stroke-dasharray:none;stroke-opacity:1"
             id="path112" /></g><g
           id="g114"
           transform="matrix(1,0,0,-1,0,600)"><path
             d="m 381.473,429.4861 c 10.8739,9.4376 21.7479,18.8754 32.6218,28.3131 l 0.7561,0.6562"
             style="fill:none;stroke:#000000;stroke-width:2;stroke-linecap:butt;stroke-linejoin:miter;stroke-miterlimit:4;stroke-dasharray:none;stroke-opacity:1"
             id="path116" /></g><path
           d="m 409.1369,140.1481 10.3964,-2.6674 -4.1039,9.9175 -1.3337,-5.1982 z"
           style="fill:#000000;fill-opacity:1;fill-rule:nonzero;stroke:none"
           id="path118" /><g
           id="g120"
           transform="matrix(1,0,0,-1,0,600)"><path
             d="m 435.75,400.75 c -2.1944,17.1159 -4.3887,34.2319 -6.583,51.3479 l -0.1272,0.9922"
             style="fill:none;stroke:#000000;stroke-width:2;stroke-linecap:butt;stroke-linejoin:miter;stroke-miterlimit:4;stroke-dasharray:none;stroke-opacity:1"
             id="path122" /></g><path
           d="m 424.7111,150.8927 3.5403,-10.1324 5.9818,8.9117 -5.0662,-1.7702 z"
           style="fill:#000000;fill-opacity:1;fill-rule:nonzero;stroke:none"
           id="path124" /><g
           id="g126"
           transform="matrix(1,0,0,-1,0,600)"><path
             d="m 423.5279,478.1841 c -7.1525,18.9195 -14.3049,37.839 -21.4575,56.7585 l -0.3542,0.937"
             style="fill:none;stroke:#000000;stroke-width:2;stroke-linecap:butt;stroke-linejoin:miter;stroke-miterlimit:4;stroke-dasharray:none;stroke-opacity:1"
             id="path128" /></g><path
           d="m 398.4287,68.99811 1.095,-10.67713 7.8847,7.28235 -5.3385,-0.54754 z"
           style="fill:#000000;fill-opacity:1;fill-rule:nonzero;stroke:none"
           id="path130" /><path
           d="m 433.364,137.364 c 3.5147,-3.5148 3.5147,-9.2132 0,-12.728 -3.5148,-3.5147 -9.2132,-3.5147 -12.728,0 -3.5147,3.5148 -3.5147,9.2132 0,12.728 3.5148,3.5147 9.2132,3.5147 12.728,0"
           style="fill:#ffffff;fill-opacity:1;fill-rule:nonzero;stroke:none"
           id="path132" /><g
           id="g134"
           transform="matrix(1,0,0,-1,0,600)"><path
             d="m 433.364,462.636 c 3.5147,3.5148 3.5147,9.2132 0,12.728 -3.5148,3.5147 -9.2132,3.5147 -12.728,0 -3.5147,-3.5148 -3.5147,-9.2132 0,-12.728 3.5148,-3.5147 9.2132,-3.5147 12.728,0"
             style="fill:none;stroke:#000000;stroke-width:2;stroke-linecap:butt;stroke-linejoin:miter;stroke-miterlimit:4;stroke-dasharray:none;stroke-opacity:1"
             id="path136" /></g><g
           id="g138"
           transform="matrix(1,0,0,-1,0,600)"><path
             d="m 386.804,554.8721 c -17.0046,7.1598 -34.0092,14.3196 -51.0138,21.4795 l -0.9234,0.3888"
             style="fill:none;stroke:#000000;stroke-width:2;stroke-linecap:butt;stroke-linejoin:miter;stroke-miterlimit:4;stroke-dasharray:none;stroke-opacity:1"
             id="path140" /></g><path
           d="m 336.1377,29.00287 -6.985,-8.14917 10.7104,-0.69855 -4.0746,3.49256 z"
           style="fill:#000000;fill-opacity:1;fill-rule:nonzero;stroke:none"
           id="path142" /><path
           d="m 402.364,55.36395 c 3.5147,-3.51471 3.5147,-9.21319 0,-12.7279 -3.5148,-3.51471 -9.2132,-3.51471 -12.728,0 -3.5147,3.51471 -3.5147,9.21319 0,12.7279 3.5148,3.51471 9.2132,3.51471 12.728,0"
           style="fill:#ffffff;fill-opacity:1;fill-rule:nonzero;stroke:none"
           id="path144" /><g
           id="g146"
           transform="matrix(1,0,0,-1,0,600)"><path
             d="m 402.364,544.636 c 3.5147,3.5148 3.5147,9.2132 0,12.728 -3.5148,3.5147 -9.2132,3.5147 -12.728,0 -3.5147,-3.5148 -3.5147,-9.2132 0,-12.728 3.5148,-3.5147 9.2132,-3.5147 12.728,0"
             style="fill:none;stroke:#000000;stroke-width:2;stroke-linecap:butt;stroke-linejoin:miter;stroke-miterlimit:4;stroke-dasharray:none;stroke-opacity:1"
             id="path148" /></g><g
           id="g150"
           transform="matrix(1,0,0,-1,0,600)"><path
             d="m 298.1686,529.9811 0.3808,0.9247 c 5.8765,14.2714 11.7523,28.5412 17.6281,42.8109"
             style="fill:none;stroke:#000000;stroke-width:2;stroke-linecap:butt;stroke-linejoin:miter;stroke-miterlimit:4;stroke-dasharray:none;stroke-opacity:1"
             id="path152" /></g><path
           d="m 303.9016,68.70258 -8.0936,7.04931 -0.7833,-10.70453 3.5247,4.04688 z"
           style="fill:#000000;fill-opacity:1;fill-rule:nonzero;stroke:none"
           id="path154" /><path
           d="m 326.364,23.36395 c 3.5147,-3.51471 3.5147,-9.21319 0,-12.7279 -3.5148,-3.514712 -9.2132,-3.514712 -12.728,0 -3.5147,3.51471 -3.5147,9.21319 0,12.7279 3.5148,3.51471 9.2132,3.51471 12.728,0"
           style="fill:#ffffff;fill-opacity:1;fill-rule:nonzero;stroke:none"
           id="path156" /><g
           id="g158"
           transform="matrix(1,0,0,-1,0,600)"><path
             d="m 326.364,576.636 c 3.5147,3.5148 3.5147,9.2132 0,12.728 -3.5148,3.5147 -9.2132,3.5147 -12.728,0 -3.5147,-3.5148 -3.5147,-9.2132 0,-12.728 3.5148,-3.5147 9.2132,-3.5147 12.728,0"
             style="fill:none;stroke:#000000;stroke-width:2;stroke-linecap:butt;stroke-linejoin:miter;stroke-miterlimit:4;stroke-dasharray:none;stroke-opacity:1"
             id="path160" /></g><path
           d="m 194.3639,35.36395 c 3.5148,-3.51471 3.5148,-9.21319 0,-12.7279 -3.5147,-3.51471 -9.2131,-3.51471 -12.7279,0 -3.5147,3.51471 -3.5147,9.21319 0,12.7279 3.5148,3.51471 9.2132,3.51471 12.7279,0"
           style="fill:#ffffff;fill-opacity:1;fill-rule:nonzero;stroke:none"
           id="path162" /><g
           id="g164"
           transform="matrix(1,0,0,-1,0,600)"><path
             d="m 194.3639,564.636 c 3.5148,3.5148 3.5148,9.2132 0,12.728 -3.5147,3.5147 -9.2131,3.5147 -12.7279,0 -3.5147,-3.5148 -3.5147,-9.2132 0,-12.728 3.5148,-3.5147 9.2132,-3.5147 12.7279,0"
             style="fill:none;stroke:#000000;stroke-width:2;stroke-linecap:butt;stroke-linejoin:miter;stroke-miterlimit:4;stroke-dasharray:none;stroke-opacity:1"
             id="path166" /></g><g
           id="g168"
           transform="matrix(1,0,0,-1,0,600)"><path
             d="m 122.16,499.87 c -1.9039,22.3707 -3.8078,44.7413 -5.7116,67.1119 l -0.0849,0.9966"
             style="fill:none;stroke:#000000;stroke-width:2;stroke-linecap:butt;stroke-linejoin:miter;stroke-miterlimit:4;stroke-dasharray:none;stroke-opacity:1"
             id="path170" /></g><path
           d="m 111.8692,35.81635 3.9686,-9.97248 5.5968,9.15839 -4.9863,-1.98432 z"
           style="fill:#000000;fill-opacity:1;fill-rule:nonzero;stroke:none"
           id="path172" /><path
           d="m 121.3639,22.36395 c 3.5148,-3.51471 3.5148,-9.21319 0,-12.727903 -3.5147,-3.514709 -9.2132,-3.514709 -12.7279,0 -3.5147,3.514713 -3.5147,9.213193 0,12.727903 3.5147,3.51471 9.2132,3.51471 12.7279,0"
           style="fill:#aecbfe;fill-opacity:1;fill-rule:nonzero;stroke:none"
           id="path174" /><g
           id="g176"
           transform="matrix(1,0,0,-1,0,600)"><path
             d="m 121.3639,577.636 c 3.5148,3.5148 3.5148,9.2132 0,12.728 -3.5147,3.5147 -9.2132,3.5147 -12.7279,0 -3.5147,-3.5148 -3.5147,-9.2132 0,-12.728 3.5147,-3.5147 9.2132,-3.5147 12.7279,0"
             style="fill:none;stroke:#000000;stroke-width:2;stroke-linecap:butt;stroke-linejoin:miter;stroke-miterlimit:4;stroke-dasharray:none;stroke-opacity:1"
             id="path178" /></g><g
           id="g180"
           transform="matrix(1,0,0,-1,0,600)"><path
             d="m 171.051,467.239 c -10.8522,5.1405 -21.7043,10.281 -32.5564,15.4215 l -0.9056,0.4289"
             style="fill:none;stroke:#000000;stroke-width:2;stroke-linecap:butt;stroke-linejoin:miter;stroke-miterlimit:4;stroke-dasharray:none;stroke-opacity:1"
             id="path182" /></g><path
           d="m 138.6069,122.704 -6.621,-8.4475 10.7307,-0.2283 -4.2238,3.3105 z"
           style="fill:#000000;fill-opacity:1;fill-rule:nonzero;stroke:none"
           id="path184" /><path
           d="m 129.3639,116.364 c 3.5148,-3.5148 3.5148,-9.2132 0,-12.728 -3.5147,-3.5147 -9.2132,-3.5147 -12.7279,0 -3.5147,3.5148 -3.5147,9.2132 0,12.728 3.5147,3.5147 9.2132,3.5147 12.7279,0"
           style="fill:#ffffff;fill-opacity:1;fill-rule:nonzero;stroke:none"
           id="path186" /><g
           id="g188"
           transform="matrix(1,0,0,-1,0,600)"><path
             d="m 129.3639,483.636 c 3.5148,3.5148 3.5148,9.2132 0,12.728 -3.5147,3.5147 -9.2132,3.5147 -12.7279,0 -3.5147,-3.5148 -3.5147,-9.2132 0,-12.728 3.5147,-3.5147 9.2132,-3.5147 12.7279,0"
             style="fill:none;stroke:#000000;stroke-width:2;stroke-linecap:butt;stroke-linejoin:miter;stroke-miterlimit:4;stroke-dasharray:none;stroke-opacity:1"
             id="path190" /></g><g
           id="g192"
           transform="matrix(1,0,0,-1,0,600)"><path
             d="m 266.5343,445.1747 0.3426,0.9395 c 7.2343,19.8359 14.468,39.6703 21.7017,59.5047"
             style="fill:none;stroke:#000000;stroke-width:2;stroke-linecap:butt;stroke-linejoin:miter;stroke-miterlimit:4;stroke-dasharray:none;stroke-opacity:1"
             id="path194" /></g><path
           d="m 272.2087,153.2757 -7.7987,7.3743 -1.2202,-10.6635 3.6871,3.8993 z"
           style="fill:#000000;fill-opacity:1;fill-rule:nonzero;stroke:none"
           id="path196" /><path
           d="m 298.364,91.36395 c 3.5147,-3.51471 3.5147,-9.21319 0,-12.7279 -3.5148,-3.51471 -9.2132,-3.51471 -12.728,0 -3.5147,3.51471 -3.5147,9.21319 0,12.7279 3.5148,3.51474 9.2132,3.51474 12.728,0"
           style="fill:#ffffff;fill-opacity:1;fill-rule:nonzero;stroke:none"
           id="path198" /><g
           id="g200"
           transform="matrix(1,0,0,-1,0,600)"><path
             d="m 298.364,508.636 c 3.5147,3.5148 3.5147,9.2132 0,12.728 -3.5148,3.5147 -9.2132,3.5147 -12.728,0 -3.5147,-3.5148 -3.5147,-9.2132 0,-12.728 3.5148,-3.5147 9.2132,-3.5147 12.728,0"
             style="fill:none;stroke:#000000;stroke-width:2;stroke-linecap:butt;stroke-linejoin:miter;stroke-miterlimit:4;stroke-dasharray:none;stroke-opacity:1"
             id="path202" /></g><g
           id="g204"
           transform="matrix(1,0,0,-1,0,600)"><path
             d="m 251.685,433.795 c -18.5892,7.5733 -37.1783,15.1467 -55.7675,22.7201 l -0.9278,0.378"
             style="fill:none;stroke:#000000;stroke-width:2;stroke-linecap:butt;stroke-linejoin:miter;stroke-miterlimit:4;stroke-dasharray:none;stroke-opacity:1"
             id="path206" /></g><path
           d="m 196.3274,148.835 -7.0795,-8.0674 10.7015,-0.8231 -4.0336,3.5397 z"
           style="fill:#000000;fill-opacity:1;fill-rule:nonzero;stroke:none"
           id="path208" /><path
           d="m 186.3639,143.364 c 3.5148,-3.5148 3.5148,-9.2132 0,-12.728 -3.5147,-3.5147 -9.2131,-3.5147 -12.7279,0 -3.5147,3.5148 -3.5147,9.2132 0,12.728 3.5148,3.5147 9.2132,3.5147 12.7279,0"
           style="fill:#ffffff;fill-opacity:1;fill-rule:nonzero;stroke:none"
           id="path210" /><g
           id="g212"
           transform="matrix(1,0,0,-1,0,600)"><path
             d="m 186.3639,456.636 c 3.5148,3.5148 3.5148,9.2132 0,12.728 -3.5147,3.5147 -9.2131,3.5147 -12.7279,0 -3.5147,-3.5148 -3.5147,-9.2132 0,-12.728 3.5148,-3.5147 9.2132,-3.5147 12.7279,0"
             style="fill:none;stroke:#000000;stroke-width:2;stroke-linecap:butt;stroke-linejoin:miter;stroke-miterlimit:4;stroke-dasharray:none;stroke-opacity:1"
             id="path214" /></g><path
           d="m 169.3639,194.364 c 3.5148,-3.5148 3.5148,-9.2132 0,-12.728 -3.5147,-3.5147 -9.2131,-3.5147 -12.7279,0 -3.5147,3.5148 -3.5147,9.2132 0,12.728 3.5148,3.5147 9.2132,3.5147 12.7279,0"
           style="fill:#ffffff;fill-opacity:1;fill-rule:nonzero;stroke:none"
           id="path216" /><g
           id="g218"
           transform="matrix(1,0,0,-1,0,600)"><path
             d="m 169.3639,405.636 c 3.5148,3.5148 3.5148,9.2132 0,12.728 -3.5147,3.5147 -9.2131,3.5147 -12.7279,0 -3.5147,-3.5148 -3.5147,-9.2132 0,-12.728 3.5148,-3.5147 9.2132,-3.5147 12.7279,0"
             style="fill:none;stroke:#000000;stroke-width:2;stroke-linecap:butt;stroke-linejoin:miter;stroke-miterlimit:4;stroke-dasharray:none;stroke-opacity:1"
             id="path220" /></g><path
           d="m 150.3639,243.364 c 3.5148,-3.5148 3.5148,-9.2132 0,-12.728 -3.5147,-3.5147 -9.2131,-3.5147 -12.7279,0 -3.5147,3.5148 -3.5147,9.2132 0,12.728 3.5148,3.5147 9.2132,3.5147 12.7279,0"
           style="fill:#ffffff;fill-opacity:1;fill-rule:nonzero;stroke:none"
           id="path222" /><g
           id="g224"
           transform="matrix(1,0,0,-1,0,600)"><path
             d="m 150.3639,356.636 c 3.5148,3.5148 3.5148,9.2132 0,12.728 -3.5147,3.5147 -9.2131,3.5147 -12.7279,0 -3.5147,-3.5148 -3.5147,-9.2132 0,-12.728 3.5148,-3.5147 9.2132,-3.5147 12.7279,0"
             style="fill:none;stroke:#000000;stroke-width:2;stroke-linecap:butt;stroke-linejoin:miter;stroke-miterlimit:4;stroke-dasharray:none;stroke-opacity:1"
             id="path226" /></g><path
           d="m 267.364,176.364 c 3.5147,-3.5148 3.5147,-9.2132 0,-12.728 -3.5148,-3.5147 -9.2132,-3.5147 -12.728,0 -3.5147,3.5148 -3.5147,9.2132 0,12.728 3.5148,3.5147 9.2132,3.5147 12.728,0"
           style="fill:#ffffff;fill-opacity:1;fill-rule:nonzero;stroke:none"
           id="path228" /><g
           id="g230"
           transform="matrix(1,0,0,-1,0,600)"><path
             d="m 267.364,423.636 c 3.5147,3.5148 3.5147,9.2132 0,12.728 -3.5148,3.5147 -9.2132,3.5147 -12.728,0 -3.5147,-3.5148 -3.5147,-9.2132 0,-12.728 3.5148,-3.5147 9.2132,-3.5147 12.728,0"
             style="fill:none;stroke:#000000;stroke-width:2;stroke-linecap:butt;stroke-linejoin:miter;stroke-miterlimit:4;stroke-dasharray:none;stroke-opacity:1"
             id="path232" /></g><g
           id="g234"
           transform="matrix(1,0,0,-1,0,600)"><path
             d="m 363.536,356.728 c 2.6009,16.4724 5.2018,32.9448 7.8027,49.4172 l 0.1561,0.9882"
             style="fill:none;stroke:#000000;stroke-width:2;stroke-linecap:butt;stroke-linejoin:miter;stroke-miterlimit:4;stroke-dasharray:none;stroke-opacity:1"
             id="path236" /></g><path
           d="m 366.2233,195.4763 6.2385,-8.7339 3.244,10.2312 -4.367,-3.1193 z"
           style="fill:#000000;fill-opacity:1;fill-rule:nonzero;stroke:none"
           id="path238" /><path
           d="m 380.364,183.364 c 3.5147,-3.5148 3.5147,-9.2132 0,-12.728 -3.5148,-3.5147 -9.2132,-3.5147 -12.728,0 -3.5147,3.5148 -3.5147,9.2132 0,12.728 3.5148,3.5147 9.2132,3.5147 12.728,0"
           style="fill:#ffffff;fill-opacity:1;fill-rule:nonzero;stroke:none"
           id="path240" /><g
           id="g242"
           transform="matrix(1,0,0,-1,0,600)"><path
             d="m 380.364,416.636 c 3.5147,3.5148 3.5147,9.2132 0,12.728 -3.5148,3.5147 -9.2132,3.5147 -12.728,0 -3.5147,-3.5148 -3.5147,-9.2132 0,-12.728 3.5148,-3.5147 9.2132,-3.5147 12.728,0"
             style="fill:none;stroke:#000000;stroke-width:2;stroke-linecap:butt;stroke-linejoin:miter;stroke-miterlimit:4;stroke-dasharray:none;stroke-opacity:1"
             id="path244" /></g><path
           d="m 537.364,208.364 c 3.5147,-3.5148 3.5147,-9.2132 0,-12.728 -3.5148,-3.5147 -9.2132,-3.5147 -12.728,0 -3.5147,3.5148 -3.5147,9.2132 0,12.728 3.5148,3.5147 9.2132,3.5147 12.728,0"
           style="fill:#ffffff;fill-opacity:1;fill-rule:nonzero;stroke:none"
           id="path246" /><g
           id="g248"
           transform="matrix(1,0,0,-1,0,600)"><path
             d="m 537.364,391.636 c 3.5147,3.5148 3.5147,9.2132 0,12.728 -3.5148,3.5147 -9.2132,3.5147 -12.728,0 -3.5147,-3.5148 -3.5147,-9.2132 0,-12.728 3.5148,-3.5147 9.2132,-3.5147 12.728,0"
             style="fill:none;stroke:#000000;stroke-width:2;stroke-linecap:butt;stroke-linejoin:miter;stroke-miterlimit:4;stroke-dasharray:none;stroke-opacity:1"
             id="path250" /></g><g
           id="g252"
           transform="matrix(1,0,0,-1,0,600)"><path
             d="m 481.931,333.735 c -11.4731,14.6225 -22.946,29.2449 -34.419,43.8673 l -0.6188,0.7887"
             style="fill:none;stroke:#000000;stroke-width:2;stroke-linecap:butt;stroke-linejoin:miter;stroke-miterlimit:4;stroke-dasharray:none;stroke-opacity:1"
             id="path254" /></g><path
           d="m 445.2156,227.2469 -2.1495,-10.5156 9.7022,4.5897 -5.2578,1.0748 z"
           style="fill:#000000;fill-opacity:1;fill-rule:nonzero;stroke:none"
           id="path256" /><path
           d="m 443.364,215.364 c 3.5147,-3.5148 3.5147,-9.2132 0,-12.728 -3.5148,-3.5147 -9.2132,-3.5147 -12.728,0 -3.5147,3.5148 -3.5147,9.2132 0,12.728 3.5148,3.5147 9.2132,3.5147 12.728,0"
           style="fill:#ffffff;fill-opacity:1;fill-rule:nonzero;stroke:none"
           id="path258" /><g
           id="g260"
           transform="matrix(1,0,0,-1,0,600)"><path
             d="m 443.364,384.636 c 3.5147,3.5148 3.5147,9.2132 0,12.728 -3.5148,3.5147 -9.2132,3.5147 -12.728,0 -3.5147,-3.5148 -3.5147,-9.2132 0,-12.728 3.5148,-3.5147 9.2132,-3.5147 12.728,0"
             style="fill:none;stroke:#000000;stroke-width:2;stroke-linecap:butt;stroke-linejoin:miter;stroke-miterlimit:4;stroke-dasharray:none;stroke-opacity:1"
             id="path262" /></g><g
           id="g264"
           transform="matrix(1,0,0,-1,0,600)"><path
             d="m 343.688,282.472 c 4.5513,16.0381 9.1027,32.0761 13.654,48.1142 l 0.2734,0.9633"
             style="fill:none;stroke:#000000;stroke-width:2;stroke-linecap:butt;stroke-linejoin:miter;stroke-miterlimit:4;stroke-dasharray:none;stroke-opacity:1"
             id="path266" /></g><path
           d="m 352.0695,270.4109 7.2385,-7.9249 1.9968,10.5458 -3.9624,-3.6193 z"
           style="fill:#000000;fill-opacity:1;fill-rule:nonzero;stroke:none"
           id="path268" /><path
           d="m 368.364,259.364 c 3.5147,-3.5148 3.5147,-9.2132 0,-12.728 -3.5148,-3.5147 -9.2132,-3.5147 -12.728,0 -3.5147,3.5148 -3.5147,9.2132 0,12.728 3.5148,3.5147 9.2132,3.5147 12.728,0"
           style="fill:#ffffff;fill-opacity:1;fill-rule:nonzero;stroke:none"
           id="path270" /><g
           id="g272"
           transform="matrix(1,0,0,-1,0,600)"><path
             d="m 368.364,340.636 c 3.5147,3.5148 3.5147,9.2132 0,12.728 -3.5148,3.5147 -9.2132,3.5147 -12.728,0 -3.5147,-3.5148 -3.5147,-9.2132 0,-12.728 3.5148,-3.5147 9.2132,-3.5147 12.728,0"
             style="fill:none;stroke:#000000;stroke-width:2;stroke-linecap:butt;stroke-linejoin:miter;stroke-miterlimit:4;stroke-dasharray:none;stroke-opacity:1"
             id="path274" /></g><path
           d="m 505.364,253.364 c 3.5147,-3.5148 3.5147,-9.2132 0,-12.728 -3.5148,-3.5147 -9.2132,-3.5147 -12.728,0 -3.5147,3.5148 -3.5147,9.2132 0,12.728 3.5148,3.5147 9.2132,3.5147 12.728,0"
           style="fill:#ffffff;fill-opacity:1;fill-rule:nonzero;stroke:none"
           id="path276" /><g
           id="g278"
           transform="matrix(1,0,0,-1,0,600)"><path
             d="m 505.364,346.636 c 3.5147,3.5148 3.5147,9.2132 0,12.728 -3.5148,3.5147 -9.2132,3.5147 -12.728,0 -3.5147,-3.5148 -3.5147,-9.2132 0,-12.728 3.5148,-3.5147 9.2132,-3.5147 12.728,0"
             style="fill:none;stroke:#000000;stroke-width:2;stroke-linecap:butt;stroke-linejoin:miter;stroke-miterlimit:4;stroke-dasharray:none;stroke-opacity:1"
             id="path280" /></g><path
           d="m 538.364,280.364 c 3.5147,-3.5148 3.5147,-9.2132 0,-12.728 -3.5148,-3.5147 -9.2132,-3.5147 -12.728,0 -3.5147,3.5148 -3.5147,9.2132 0,12.728 3.5148,3.5147 9.2132,3.5147 12.728,0"
           style="fill:#ffffff;fill-opacity:1;fill-rule:nonzero;stroke:none"
           id="path282" /><g
           id="g284"
           transform="matrix(1,0,0,-1,0,600)"><path
             d="m 538.364,319.636 c 3.5147,3.5148 3.5147,9.2132 0,12.728 -3.5148,3.5147 -9.2132,3.5147 -12.728,0 -3.5147,-3.5148 -3.5147,-9.2132 0,-12.728 3.5148,-3.5147 9.2132,-3.5147 12.728,0"
             style="fill:none;stroke:#000000;stroke-width:2;stroke-linecap:butt;stroke-linejoin:miter;stroke-miterlimit:4;stroke-dasharray:none;stroke-opacity:1"
             id="path286" /></g><g
           id="g288"
           transform="matrix(1,0,0,-1,0,600)"><path
             d="m 526.388,228.202 c -10.7159,27.3001 -21.4319,54.6002 -32.1478,81.9003 l -0.3661,0.9325"
             style="fill:none;stroke:#000000;stroke-width:2;stroke-linecap:butt;stroke-linejoin:miter;stroke-miterlimit:4;stroke-dasharray:none;stroke-opacity:1"
             id="path290" /></g><path
           d="m 490.6483,293.8839 0.9605,-10.6901 7.9758,7.1825 -5.3451,-0.4803 z"
           style="fill:#000000;fill-opacity:1;fill-rule:nonzero;stroke:none"
           id="path292" /><path
           d="m 494.364,280.364 c 3.5147,-3.5148 3.5147,-9.2132 0,-12.728 -3.5148,-3.5147 -9.2132,-3.5147 -12.728,0 -3.5147,3.5148 -3.5147,9.2132 0,12.728 3.5148,3.5147 9.2132,3.5147 12.728,0"
           style="fill:#ffffff;fill-opacity:1;fill-rule:nonzero;stroke:none"
           id="path294" /><g
           id="g296"
           transform="matrix(1,0,0,-1,0,600)"><path
             d="m 494.364,319.636 c 3.5147,3.5148 3.5147,9.2132 0,12.728 -3.5148,3.5147 -9.2132,3.5147 -12.728,0 -3.5147,-3.5148 -3.5147,-9.2132 0,-12.728 3.5148,-3.5147 9.2132,-3.5147 12.728,0"
             style="fill:none;stroke:#000000;stroke-width:2;stroke-linecap:butt;stroke-linejoin:miter;stroke-miterlimit:4;stroke-dasharray:none;stroke-opacity:1"
             id="path298" /></g><path
           d="m 257.364,227.364 c 3.5147,-3.5148 3.5147,-9.2132 0,-12.728 -3.5148,-3.5147 -9.2132,-3.5147 -12.728,0 -3.5147,3.5148 -3.5147,9.2132 0,12.728 3.5148,3.5147 9.2132,3.5147 12.728,0"
           style="fill:#ffffff;fill-opacity:1;fill-rule:nonzero;stroke:none"
           id="path300" /><g
           id="g302"
           transform="matrix(1,0,0,-1,0,600)"><path
             d="m 257.364,372.636 c 3.5147,3.5148 3.5147,9.2132 0,12.728 -3.5148,3.5147 -9.2132,3.5147 -12.728,0 -3.5147,-3.5148 -3.5147,-9.2132 0,-12.728 3.5148,-3.5147 9.2132,-3.5147 12.728,0"
             style="fill:none;stroke:#000000;stroke-width:2;stroke-linecap:butt;stroke-linejoin:miter;stroke-miterlimit:4;stroke-dasharray:none;stroke-opacity:1"
             id="path304" /></g><path
           d="m 228.3639,301.364 c 3.5148,-3.5148 3.5148,-9.2132 0,-12.728 -3.5147,-3.5147 -9.2131,-3.5147 -12.7279,0 -3.5147,3.5148 -3.5147,9.2132 0,12.728 3.5148,3.5147 9.2132,3.5147 12.7279,0"
           style="fill:#ffffff;fill-opacity:1;fill-rule:nonzero;stroke:none"
           id="path306" /><g
           id="g308"
           transform="matrix(1,0,0,-1,0,600)"><path
             d="m 228.3639,298.636 c 3.5148,3.5148 3.5148,9.2132 0,12.728 -3.5147,3.5147 -9.2131,3.5147 -12.7279,0 -3.5147,-3.5148 -3.5147,-9.2132 0,-12.728 3.5148,-3.5147 9.2132,-3.5147 12.7279,0"
             style="fill:none;stroke:#000000;stroke-width:2;stroke-linecap:butt;stroke-linejoin:miter;stroke-miterlimit:4;stroke-dasharray:none;stroke-opacity:1"
             id="path310" /></g><g
           id="g312"
           transform="matrix(1,0,0,-1,0,600)"><path
             d="m 436.808,202.96 c -14.206,13.7478 -28.4121,27.4956 -42.6182,41.2433 l -0.7186,0.6955"
             style="fill:none;stroke:#000000;stroke-width:2;stroke-linecap:butt;stroke-linejoin:miter;stroke-miterlimit:4;stroke-dasharray:none;stroke-opacity:1"
             id="path314" /></g><path
           d="m 392.5764,360.9149 -3.5606,-10.1253 10.2366,3.2267 -5.0626,1.7803 z"
           style="fill:#000000;fill-opacity:1;fill-rule:nonzero;stroke:none"
           id="path316" /><g
           id="g318"
           transform="matrix(1,0,0,-1,0,600)"><path
             d="m 372.1,256.693 c -24.3353,1.7035 -48.6705,3.4069 -73.0057,5.1104 l -0.9977,0.0698"
             style="fill:none;stroke:#000000;stroke-width:2;stroke-linecap:butt;stroke-linejoin:miter;stroke-miterlimit:4;stroke-dasharray:none;stroke-opacity:1"
             id="path320" /></g><path
           d="m 301.153,343.1525 -9.2413,-5.4587 9.9118,-4.1179 -2.7294,4.6207 z"
           style="fill:#000000;fill-opacity:1;fill-rule:nonzero;stroke:none"
           id="path322" /><path
           d="m 388.364,350.364 c 3.5147,-3.5148 3.5147,-9.2132 0,-12.728 -3.5148,-3.5147 -9.2132,-3.5147 -12.728,0 -3.5147,3.5148 -3.5147,9.2132 0,12.728 3.5148,3.5147 9.2132,3.5147 12.728,0"
           style="fill:#ffffff;fill-opacity:1;fill-rule:nonzero;stroke:none"
           id="path324" /><g
           id="g326"
           transform="matrix(1,0,0,-1,0,600)"><path
             d="m 388.364,249.636 c 3.5147,3.5148 3.5147,9.2132 0,12.728 -3.5148,3.5147 -9.2132,3.5147 -12.728,0 -3.5147,-3.5148 -3.5147,-9.2132 0,-12.728 3.5148,-3.5147 9.2132,-3.5147 12.728,0"
             style="fill:none;stroke:#000000;stroke-width:2;stroke-linecap:butt;stroke-linejoin:miter;stroke-miterlimit:4;stroke-dasharray:none;stroke-opacity:1"
             id="path328" /></g><g
           id="g330"
           transform="matrix(1,0,0,-1,0,600)"><path
             d="m 334.392,226.7441 c 1.3985,9.7892 2.7969,19.5784 4.1954,29.3676 l 0.1414,0.9903"
             style="fill:none;stroke:#000000;stroke-width:2;stroke-linecap:butt;stroke-linejoin:miter;stroke-miterlimit:4;stroke-dasharray:none;stroke-opacity:1"
             id="path332" /></g><path
           d="m 333.4962,345.585 6.1095,-8.8247 3.394,10.1824 -4.4123,-3.0548 z"
           style="fill:#000000;fill-opacity:1;fill-rule:nonzero;stroke:none"
           id="path334" /><path
           d="m 347.364,333.364 c 3.5147,-3.5148 3.5147,-9.2132 0,-12.728 -3.5148,-3.5147 -9.2132,-3.5147 -12.728,0 -3.5147,3.5148 -3.5147,9.2132 0,12.728 3.5148,3.5147 9.2132,3.5147 12.728,0"
           style="fill:#ffffff;fill-opacity:1;fill-rule:nonzero;stroke:none"
           id="path336" /><g
           id="g338"
           transform="matrix(1,0,0,-1,0,600)"><path
             d="m 347.364,266.636 c 3.5147,3.5148 3.5147,9.2132 0,12.728 -3.5148,3.5147 -9.2132,3.5147 -12.728,0 -3.5147,-3.5148 -3.5147,-9.2132 0,-12.728 3.5148,-3.5147 9.2132,-3.5147 12.728,0"
             style="fill:none;stroke:#000000;stroke-width:2;stroke-linecap:butt;stroke-linejoin:miter;stroke-miterlimit:4;stroke-dasharray:none;stroke-opacity:1"
             id="path340" /></g><path
           d="m 288.364,343.364 c 3.5147,-3.5148 3.5147,-9.2132 0,-12.728 -3.5148,-3.5147 -9.2132,-3.5147 -12.728,0 -3.5147,3.5148 -3.5147,9.2132 0,12.728 3.5148,3.5147 9.2132,3.5147 12.728,0"
           style="fill:#ffffff;fill-opacity:1;fill-rule:nonzero;stroke:none"
           id="path342" /><g
           id="g344"
           transform="matrix(1,0,0,-1,0,600)"><path
             d="m 288.364,256.636 c 3.5147,3.5148 3.5147,9.2132 0,12.728 -3.5148,3.5147 -9.2132,3.5147 -12.728,0 -3.5147,-3.5148 -3.5147,-9.2132 0,-12.728 3.5148,-3.5147 9.2132,-3.5147 12.728,0"
             style="fill:none;stroke:#000000;stroke-width:2;stroke-linecap:butt;stroke-linejoin:miter;stroke-miterlimit:4;stroke-dasharray:none;stroke-opacity:1"
             id="path346" /></g><path
           d="m 139.3639,343.364 c 3.5148,-3.5148 3.5148,-9.2132 0,-12.728 -3.5147,-3.5147 -9.2131,-3.5147 -12.7279,0 -3.5147,3.5148 -3.5147,9.2132 0,12.728 3.5148,3.5147 9.2132,3.5147 12.7279,0"
           style="fill:#ffffff;fill-opacity:1;fill-rule:nonzero;stroke:none"
           id="path348" /><g
           id="g350"
           transform="matrix(1,0,0,-1,0,600)"><path
             d="m 139.3639,256.636 c 3.5148,3.5148 3.5148,9.2132 0,12.728 -3.5147,3.5147 -9.2131,3.5147 -12.7279,0 -3.5147,-3.5148 -3.5147,-9.2132 0,-12.728 3.5148,-3.5147 9.2132,-3.5147 12.7279,0"
             style="fill:none;stroke:#000000;stroke-width:2;stroke-linecap:butt;stroke-linejoin:miter;stroke-miterlimit:4;stroke-dasharray:none;stroke-opacity:1"
             id="path352" /></g><path
           d="m 92.36395,384.364 c 3.51473,-3.5148 3.51473,-9.2132 0,-12.728 -3.51471,-3.5147 -9.2132,-3.5147 -12.72791,0 -3.51472,3.5148 -3.51472,9.2132 0,12.728 3.51471,3.5147 9.2132,3.5147 12.72791,0"
           style="fill:#ffffff;fill-opacity:1;fill-rule:nonzero;stroke:none"
           id="path354" /><g
           id="g356"
           transform="matrix(1,0,0,-1,0,600)"><path
             d="m 92.36395,215.636 c 3.51473,3.5148 3.51473,9.2132 0,12.728 -3.51471,3.5147 -9.2132,3.5147 -12.72791,0 -3.51472,-3.5148 -3.51472,-9.2132 0,-12.728 3.51471,-3.5147 9.2132,-3.5147 12.72791,0"
             style="fill:none;stroke:#000000;stroke-width:2;stroke-linecap:butt;stroke-linejoin:miter;stroke-miterlimit:4;stroke-dasharray:none;stroke-opacity:1"
             id="path358" /></g><g
           id="g360"
           transform="matrix(1,0,0,-1,0,600)"><path
             d="m 162.42,160.49 c 14.1545,16.5136 28.309,33.0271 42.4634,49.5407 l 0.6516,0.7602"
             style="fill:none;stroke:#000000;stroke-width:2;stroke-linecap:butt;stroke-linejoin:miter;stroke-miterlimit:4;stroke-dasharray:none;stroke-opacity:1"
             id="path362" /></g><path
           d="m 199.6779,388.6668 9.8921,-4.1651 -2.6032,10.4127 -2.0825,-4.946 z"
           style="fill:#000000;fill-opacity:1;fill-rule:nonzero;stroke:none"
           id="path364" /><path
           d="m 222.3639,383.364 c 3.5148,-3.5148 3.5148,-9.2132 0,-12.728 -3.5147,-3.5147 -9.2131,-3.5147 -12.7279,0 -3.5147,3.5148 -3.5147,9.2132 0,12.728 3.5148,3.5147 9.2132,3.5147 12.7279,0"
           style="fill:#ffffff;fill-opacity:1;fill-rule:nonzero;stroke:none"
           id="path366" /><g
           id="g368"
           transform="matrix(1,0,0,-1,0,600)"><path
             d="m 222.3639,216.636 c 3.5148,3.5148 3.5148,9.2132 0,12.728 -3.5147,3.5147 -9.2131,3.5147 -12.7279,0 -3.5147,-3.5148 -3.5147,-9.2132 0,-12.728 3.5148,-3.5147 9.2132,-3.5147 12.7279,0"
             style="fill:none;stroke:#000000;stroke-width:2;stroke-linecap:butt;stroke-linejoin:miter;stroke-miterlimit:4;stroke-dasharray:none;stroke-opacity:1"
             id="path370" /></g><path
           d="m 263.364,389.364 c 3.5147,-3.5148 3.5147,-9.2132 0,-12.728 -3.5148,-3.5147 -9.2132,-3.5147 -12.728,0 -3.5147,3.5148 -3.5147,9.2132 0,12.728 3.5148,3.5147 9.2132,3.5147 12.728,0"
           style="fill:#ffffff;fill-opacity:1;fill-rule:nonzero;stroke:none"
           id="path372" /><g
           id="g374"
           transform="matrix(1,0,0,-1,0,600)"><path
             d="m 263.364,210.636 c 3.5147,3.5148 3.5147,9.2132 0,12.728 -3.5148,3.5147 -9.2132,3.5147 -12.728,0 -3.5147,-3.5148 -3.5147,-9.2132 0,-12.728 3.5148,-3.5147 9.2132,-3.5147 12.728,0"
             style="fill:none;stroke:#000000;stroke-width:2;stroke-linecap:butt;stroke-linejoin:miter;stroke-miterlimit:4;stroke-dasharray:none;stroke-opacity:1"
             id="path376" /></g><g
           id="g378"
           transform="matrix(1,0,0,-1,0,600)"><path
             d="m 335.655,140.89 c -0.6863,19.6731 -1.3726,39.3463 -2.0588,59.0195 l -0.0349,0.9994"
             style="fill:none;stroke:#000000;stroke-width:2;stroke-linecap:butt;stroke-linejoin:miter;stroke-miterlimit:4;stroke-dasharray:none;stroke-opacity:1"
             id="path380" /></g><path
           d="m 328.8827,402.6564 4.4624,-9.7616 5.1318,9.4269 -4.8808,-2.2312 z"
           style="fill:#000000;fill-opacity:1;fill-rule:nonzero;stroke:none"
           id="path382" /><path
           d="m 339.364,389.364 c 3.5147,-3.5148 3.5147,-9.2132 0,-12.728 -3.5148,-3.5147 -9.2132,-3.5147 -12.728,0 -3.5147,3.5148 -3.5147,9.2132 0,12.728 3.5148,3.5147 9.2132,3.5147 12.728,0"
           style="fill:#ffffff;fill-opacity:1;fill-rule:nonzero;stroke:none"
           id="path384" /><g
           id="g386"
           transform="matrix(1,0,0,-1,0,600)"><path
             d="m 339.364,210.636 c 3.5147,3.5148 3.5147,9.2132 0,12.728 -3.5148,3.5147 -9.2132,3.5147 -12.728,0 -3.5147,-3.5148 -3.5147,-9.2132 0,-12.728 3.5148,-3.5147 9.2132,-3.5147 12.728,0"
             style="fill:none;stroke:#000000;stroke-width:2;stroke-linecap:butt;stroke-linejoin:miter;stroke-miterlimit:4;stroke-dasharray:none;stroke-opacity:1"
             id="path388" /></g><g
           id="g390"
           transform="matrix(1,0,0,-1,0,600)"><path
             d="m 506.7651,205.1846 0.8595,0.5111 c 4.6411,2.7596 9.2807,5.5183 13.9203,8.2769"
             style="fill:none;stroke:#000000;stroke-width:2;stroke-linecap:butt;stroke-linejoin:miter;stroke-miterlimit:4;stroke-dasharray:none;stroke-opacity:1"
             id="path392" /></g><path
           d="m 512.1407,397.2034 -10.7047,0.7806 5.7983,-9.0321 0.3903,5.3524 z"
           style="fill:#000000;fill-opacity:1;fill-rule:nonzero;stroke:none"
           id="path394" /><g
           id="g396"
           transform="matrix(1,0,0,-1,0,600)"><path
             d="m 459.5355,200.1548 0.966,0.2584 c 19.9811,5.3438 39.9611,10.6873 59.9411,16.0308"
             style="fill:none;stroke:#000000;stroke-width:2;stroke-linecap:butt;stroke-linejoin:miter;stroke-miterlimit:4;stroke-dasharray:none;stroke-opacity:1"
             id="path398" /></g><path
           d="m 464.0602,403.6038 -10.5142,-2.1568 8.0339,-7.1173 -1.0784,5.2571 z"
           style="fill:#000000;fill-opacity:1;fill-rule:nonzero;stroke:none"
           id="path400" /><path
           d="m 536.364,387.364 c 3.5147,-3.5148 3.5147,-9.2132 0,-12.728 -3.5148,-3.5147 -9.2132,-3.5147 -12.728,0 -3.5147,3.5148 -3.5147,9.2132 0,12.728 3.5148,3.5147 9.2132,3.5147 12.728,0"
           style="fill:#ffffff;fill-opacity:1;fill-rule:nonzero;stroke:none"
           id="path402" /><g
           id="g404"
           transform="matrix(1,0,0,-1,0,600)"><path
             d="m 536.364,212.636 c 3.5147,3.5148 3.5147,9.2132 0,12.728 -3.5148,3.5147 -9.2132,3.5147 -12.728,0 -3.5147,-3.5148 -3.5147,-9.2132 0,-12.728 3.5148,-3.5147 9.2132,-3.5147 12.728,0"
             style="fill:none;stroke:#000000;stroke-width:2;stroke-linecap:butt;stroke-linejoin:miter;stroke-miterlimit:4;stroke-dasharray:none;stroke-opacity:1"
             id="path406" /></g><path
           d="m 499.364,409.364 c 3.5147,-3.5148 3.5147,-9.2132 0,-12.728 -3.5148,-3.5147 -9.2132,-3.5147 -12.728,0 -3.5147,3.5148 -3.5147,9.2132 0,12.728 3.5148,3.5147 9.2132,3.5147 12.728,0"
           style="fill:#ffffff;fill-opacity:1;fill-rule:nonzero;stroke:none"
           id="path408" /><g
           id="g410"
           transform="matrix(1,0,0,-1,0,600)"><path
             d="m 499.364,190.636 c 3.5147,3.5148 3.5147,9.2132 0,12.728 -3.5148,3.5147 -9.2132,3.5147 -12.728,0 -3.5147,-3.5148 -3.5147,-9.2132 0,-12.728 3.5148,-3.5147 9.2132,-3.5147 12.728,0"
             style="fill:none;stroke:#000000;stroke-width:2;stroke-linecap:butt;stroke-linejoin:miter;stroke-miterlimit:4;stroke-dasharray:none;stroke-opacity:1"
             id="path412" /></g><path
           d="m 450.364,410.364 c 3.5147,-3.5148 3.5147,-9.2132 0,-12.728 -3.5148,-3.5147 -9.2132,-3.5147 -12.728,0 -3.5147,3.5148 -3.5147,9.2132 0,12.728 3.5148,3.5147 9.2132,3.5147 12.728,0"
           style="fill:#ffffff;fill-opacity:1;fill-rule:nonzero;stroke:none"
           id="path414" /><g
           id="g416"
           transform="matrix(1,0,0,-1,0,600)"><path
             d="m 450.364,189.636 c 3.5147,3.5148 3.5147,9.2132 0,12.728 -3.5148,3.5147 -9.2132,3.5147 -12.728,0 -3.5147,-3.5148 -3.5147,-9.2132 0,-12.728 3.5148,-3.5147 9.2132,-3.5147 12.728,0"
             style="fill:none;stroke:#000000;stroke-width:2;stroke-linecap:butt;stroke-linejoin:miter;stroke-miterlimit:4;stroke-dasharray:none;stroke-opacity:1"
             id="path418" /></g><path
           d="m 557.364,457.364 c 3.5147,-3.5148 3.5147,-9.2132 0,-12.728 -3.5148,-3.5147 -9.2132,-3.5147 -12.728,0 -3.5147,3.5148 -3.5147,9.2132 0,12.728 3.5148,3.5147 9.2132,3.5147 12.728,0"
           style="fill:#ffffff;fill-opacity:1;fill-rule:nonzero;stroke:none"
           id="path420" /><g
           id="g422"
           transform="matrix(1,0,0,-1,0,600)"><path
             d="m 557.364,142.636 c 3.5147,3.5148 3.5147,9.2132 0,12.728 -3.5148,3.5147 -9.2132,3.5147 -12.728,0 -3.5147,-3.5148 -3.5147,-9.2132 0,-12.728 3.5148,-3.5147 9.2132,-3.5147 12.728,0"
             style="fill:none;stroke:#000000;stroke-width:2;stroke-linecap:butt;stroke-linejoin:miter;stroke-miterlimit:4;stroke-dasharray:none;stroke-opacity:1"
             id="path424" /></g><path
           d="m 527.364,492.364 c 3.5147,-3.5148 3.5147,-9.2132 0,-12.728 -3.5148,-3.5147 -9.2132,-3.5147 -12.728,0 -3.5147,3.5148 -3.5147,9.2132 0,12.728 3.5148,3.5147 9.2132,3.5147 12.728,0"
           style="fill:#ffffff;fill-opacity:1;fill-rule:nonzero;stroke:none"
           id="path426" /><g
           id="g428"
           transform="matrix(1,0,0,-1,0,600)"><path
             d="m 527.364,107.636 c 3.5147,3.5148 3.5147,9.2132 0,12.728 -3.5148,3.5147 -9.2132,3.5147 -12.728,0 -3.5147,-3.5148 -3.5147,-9.2132 0,-12.728 3.5148,-3.5147 9.2132,-3.5147 12.728,0"
             style="fill:none;stroke:#000000;stroke-width:2;stroke-linecap:butt;stroke-linejoin:miter;stroke-miterlimit:4;stroke-dasharray:none;stroke-opacity:1"
             id="path430" /></g><path
           d="m 408.364,490.364 c 3.5147,-3.5148 3.5147,-9.2132 0,-12.728 -3.5148,-3.5147 -9.2132,-3.5147 -12.728,0 -3.5147,3.5148 -3.5147,9.2132 0,12.728 3.5148,3.5147 9.2132,3.5147 12.728,0"
           style="fill:#ffffff;fill-opacity:1;fill-rule:nonzero;stroke:none"
           id="path432" /><g
           id="g434"
           transform="matrix(1,0,0,-1,0,600)"><path
             d="m 408.364,109.636 c 3.5147,3.5148 3.5147,9.2132 0,12.728 -3.5148,3.5147 -9.2132,3.5147 -12.728,0 -3.5147,-3.5148 -3.5147,-9.2132 0,-12.728 3.5148,-3.5147 9.2132,-3.5147 12.728,0"
             style="fill:none;stroke:#000000;stroke-width:2;stroke-linecap:butt;stroke-linejoin:miter;stroke-miterlimit:4;stroke-dasharray:none;stroke-opacity:1"
             id="path436" /></g><g
           id="g438"
           transform="matrix(1,0,0,-1,0,600)"><path
             d="m 295.2,113.864 c 8.3266,3.4971 16.6531,6.9943 24.9797,10.4915 l 0.9238,0.3879"
             style="fill:none;stroke:#000000;stroke-width:2;stroke-linecap:butt;stroke-linejoin:miter;stroke-miterlimit:4;stroke-dasharray:none;stroke-opacity:1"
             id="path440" /></g><path
           d="m 316.11,472.1476 10.7098,0.7081 -6.9923,8.143 0.354,-5.3549 z"
           style="fill:#000000;fill-opacity:1;fill-rule:nonzero;stroke:none"
           id="path442" /><path
           d="m 342.364,475.364 c 3.5147,-3.5148 3.5147,-9.2132 0,-12.728 -3.5148,-3.5147 -9.2132,-3.5147 -12.728,0 -3.5147,3.5148 -3.5147,9.2132 0,12.728 3.5148,3.5147 9.2132,3.5147 12.728,0"
           style="fill:#ffffff;fill-opacity:1;fill-rule:nonzero;stroke:none"
           id="path444" /><g
           id="g446"
           transform="matrix(1,0,0,-1,0,600)"><path
             d="m 342.364,124.636 c 3.5147,3.5148 3.5147,9.2132 0,12.728 -3.5148,3.5147 -9.2132,3.5147 -12.728,0 -3.5147,-3.5148 -3.5147,-9.2132 0,-12.728 3.5148,-3.5147 9.2132,-3.5147 12.728,0"
             style="fill:none;stroke:#000000;stroke-width:2;stroke-linecap:butt;stroke-linejoin:miter;stroke-miterlimit:4;stroke-dasharray:none;stroke-opacity:1"
             id="path448" /></g><g
           id="g450"
           transform="matrix(1,0,0,-1,0,600)"><path
             d="m 230.138,39.72198 c 15.0784,18.96961 30.1568,37.93921 45.2352,56.90882 l 0.6236,0.78457"
             style="fill:none;stroke:#000000;stroke-width:2;stroke-linecap:butt;stroke-linejoin:miter;stroke-miterlimit:4;stroke-dasharray:none;stroke-opacity:1"
             id="path452" /></g><path
           d="m 270.1236,502.2595 9.7311,-4.5284 -2.216,10.5019 -2.2641,-4.8655 z"
           style="fill:#000000;fill-opacity:1;fill-rule:nonzero;stroke:none"
           id="path454" /><path
           d="m 292.364,496.364 c 3.5147,-3.5148 3.5147,-9.2132 0,-12.728 -3.5148,-3.5147 -9.2132,-3.5147 -12.728,0 -3.5147,3.5148 -3.5147,9.2132 0,12.728 3.5148,3.5147 9.2132,3.5147 12.728,0"
           style="fill:#ffffff;fill-opacity:1;fill-rule:nonzero;stroke:none"
           id="path456" /><g
           id="g458"
           transform="matrix(1,0,0,-1,0,600)"><path
             d="m 292.364,103.636 c 3.5147,3.5148 3.5147,9.2132 0,12.728 -3.5148,3.5147 -9.2132,3.5147 -12.728,0 -3.5147,-3.5148 -3.5147,-9.2132 0,-12.728 3.5148,-3.5147 9.2132,-3.5147 12.728,0"
             style="fill:none;stroke:#000000;stroke-width:2;stroke-linecap:butt;stroke-linejoin:miter;stroke-miterlimit:4;stroke-dasharray:none;stroke-opacity:1"
             id="path460" /></g><g
           id="g462"
           transform="matrix(1,0,0,-1,0,600)"><path
             d="m 150.768,85.85602 c 1.3029,16.72068 2.6058,33.44138 3.9087,50.16208 l 0.0777,0.9971"
             style="fill:none;stroke:#000000;stroke-width:2;stroke-linecap:butt;stroke-linejoin:miter;stroke-miterlimit:4;stroke-dasharray:none;stroke-opacity:1"
             id="path464" /></g><path
           d="m 149.7048,466.0016 5.5313,-9.1981 4.0397,9.9439 -4.5991,-2.7656 z"
           style="fill:#000000;fill-opacity:1;fill-rule:nonzero;stroke:none"
           id="path466" /><path
           d="m 162.3639,453.364 c 3.5148,-3.5148 3.5148,-9.2132 0,-12.728 -3.5147,-3.5147 -9.2131,-3.5147 -12.7279,0 -3.5147,3.5148 -3.5147,9.2132 0,12.728 3.5148,3.5147 9.2132,3.5147 12.7279,0"
           style="fill:#ffffff;fill-opacity:1;fill-rule:nonzero;stroke:none"
           id="path468" /><g
           id="g470"
           transform="matrix(1,0,0,-1,0,600)"><path
             d="m 162.3639,146.636 c 3.5148,3.5148 3.5148,9.2132 0,12.728 -3.5147,3.5147 -9.2131,3.5147 -12.7279,0 -3.5147,-3.5148 -3.5147,-9.2132 0,-12.728 3.5148,-3.5147 9.2132,-3.5147 12.7279,0"
             style="fill:none;stroke:#000000;stroke-width:2;stroke-linecap:butt;stroke-linejoin:miter;stroke-miterlimit:4;stroke-dasharray:none;stroke-opacity:1"
             id="path472" /></g><path
           d="m 206.3639,492.364 c 3.5148,-3.5148 3.5148,-9.2132 0,-12.728 -3.5147,-3.5147 -9.2131,-3.5147 -12.7279,0 -3.5147,3.5148 -3.5147,9.2132 0,12.728 3.5148,3.5147 9.2132,3.5147 12.7279,0"
           style="fill:#ffffff;fill-opacity:1;fill-rule:nonzero;stroke:none"
           id="path474" /><g
           id="g476"
           transform="matrix(1,0,0,-1,0,600)"><path
             d="m 206.3639,107.636 c 3.5148,3.5148 3.5148,9.2132 0,12.728 -3.5147,3.5147 -9.2131,3.5147 -12.7279,0 -3.5147,-3.5148 -3.5147,-9.2132 0,-12.728 3.5148,-3.5147 9.2132,-3.5147 12.7279,0"
             style="fill:none;stroke:#000000;stroke-width:2;stroke-linecap:butt;stroke-linejoin:miter;stroke-miterlimit:4;stroke-dasharray:none;stroke-opacity:1"
             id="path478" /></g><g
           id="g480"
           transform="matrix(1,0,0,-1,0,600)"><path
             d="m 215.564,37.01599 c -16.9719,10.09143 -33.9437,20.1828 -50.9156,30.27417 l -0.861,0.51196"
             style="fill:none;stroke:#000000;stroke-width:2;stroke-linecap:butt;stroke-linejoin:miter;stroke-miterlimit:4;stroke-dasharray:none;stroke-opacity:1"
             id="path482" /></g><path
           d="m 164.2566,538.0613 -5.7984,-9.0321 10.7047,0.7806 -4.516,2.8991 z"
           style="fill:#000000;fill-opacity:1;fill-rule:nonzero;stroke:none"
           id="path484" /><path
           d="m 156.3639,530.364 c 3.5148,-3.5148 3.5148,-9.2132 0,-12.728 -3.5147,-3.5147 -9.2131,-3.5147 -12.7279,0 -3.5147,3.5148 -3.5147,9.2132 0,12.728 3.5148,3.5147 9.2132,3.5147 12.7279,0"
           style="fill:#ffffff;fill-opacity:1;fill-rule:nonzero;stroke:none"
           id="path486" /><g
           id="g488"
           transform="matrix(1,0,0,-1,0,600)"><path
             d="m 156.3639,69.63605 c 3.5148,3.51471 3.5148,9.21319 0,12.7279 -3.5147,3.51471 -9.2131,3.51471 -12.7279,0 -3.5147,-3.51471 -3.5147,-9.21319 0,-12.7279 3.5148,-3.51471 9.2132,-3.51471 12.7279,0"
             style="fill:none;stroke:#000000;stroke-width:2;stroke-linecap:butt;stroke-linejoin:miter;stroke-miterlimit:4;stroke-dasharray:none;stroke-opacity:1"
             id="path490" /></g><path
           d="m 230.3639,574.364 c 3.5148,-3.5148 3.5148,-9.2132 0,-12.728 -3.5147,-3.5147 -9.2131,-3.5147 -12.7279,0 -3.5147,3.5148 -3.5147,9.2132 0,12.728 3.5148,3.5147 9.2132,3.5147 12.7279,0"
           style="fill:#050043;fill-opacity:1;fill-rule:nonzero;stroke:none"
           id="path492" /><g
           id="g494"
           transform="matrix(1,0,0,-1,0,600)"><path
             d="m 230.3639,25.63605 c 3.5148,3.51471 3.5148,9.21319 0,12.7279 -3.5147,3.51471 -9.2131,3.51471 -12.7279,0 -3.5147,-3.51471 -3.5147,-9.21319 0,-12.7279 3.5148,-3.51471 9.2132,-3.51471 12.7279,0"
             style="fill:none;stroke:#000000;stroke-width:2;stroke-linecap:butt;stroke-linejoin:miter;stroke-miterlimit:4;stroke-dasharray:none;stroke-opacity:1"
             id="path496" /></g></g></g></g></svg>
